<svg xmlns="http://www.w3.org/2000/svg" xmlns:xlink="http://www.w3.org/1999/xlink" width="300" zoomAndPan="magnify" viewBox="0 0 224.87999 225" height="300" preserveAspectRatio="xMidYMid meet" version="1.0"><defs><g/></defs><g fill="#f4f3f2" fill-opacity="1"><g transform="translate(-7.636822, 118.547853)"><g><path d="M 14.875 0 L 25.25 -10.4375 L 26.3125 -10.578125 C 26.59375 -10.628906 27.203125 -10.609375 28.140625 -10.515625 C 28.609375 -10.460938 29.125 -10.4375 29.6875 -10.4375 C 34.820312 -10.4375 38.691406 -12 41.296875 -15.125 C 43.910156 -18.25 46.015625 -23.859375 47.609375 -31.953125 L 60.9375 -98.890625 C 51.25 -98.890625 43.421875 -96.289062 37.453125 -91.09375 C 31.484375 -85.894531 28.5 -79.113281 28.5 -70.75 L 28.5 -69.1875 L 14.8125 -62.5625 C 17.257812 -90.445312 37.335938 -104.390625 75.046875 -104.390625 L 95.4375 -104.390625 C 111.132812 -104.390625 122.460938 -101.460938 129.421875 -95.609375 C 136.390625 -89.753906 139.875 -80.195312 139.875 -66.9375 C 139.875 -45.445312 132.453125 -28.625 117.609375 -16.46875 C 102.773438 -4.3125 82.285156 1.765625 56.140625 1.765625 C 55.054688 1.765625 52.867188 1.691406 49.578125 1.546875 Z M 40.34375 -8.890625 L 52.90625 -6.765625 C 59.71875 -5.597656 66.648438 -5.015625 73.703125 -5.015625 C 83.390625 -5.015625 90.9375 -6.34375 96.34375 -9 C 101.75 -11.65625 106.757812 -16.507812 111.375 -23.5625 C 119.507812 -35.96875 123.578125 -49.769531 123.578125 -64.96875 C 123.578125 -88.382812 110.644531 -100.09375 84.78125 -100.09375 L 75.96875 -100.09375 L 65.171875 -45.984375 C 63.242188 -36.160156 60.585938 -28.734375 57.203125 -23.703125 C 53.816406 -18.671875 48.195312 -13.734375 40.34375 -8.890625 Z M 40.34375 -8.890625 "/></g></g></g><g fill="#f4f3f2" fill-opacity="1"><g transform="translate(38.988504, 208.910895)"><g><path d="M 5.640625 -6.625 L 15.734375 -16.921875 C 20.523438 -9.117188 27.109375 -5.21875 35.484375 -5.21875 C 41.078125 -5.21875 46.007812 -7.554688 50.28125 -12.234375 C 54.5625 -16.910156 57.476562 -23.15625 59.03125 -30.96875 L 72.375 -97.90625 C 69.96875 -98.28125 68.273438 -98.46875 67.296875 -98.46875 C 59.578125 -98.46875 53.128906 -95.703125 47.953125 -90.171875 C 42.785156 -84.648438 40.203125 -77.773438 40.203125 -69.546875 L 26.515625 -62.84375 C 27.460938 -75.300781 32.566406 -85.335938 41.828125 -92.953125 C 51.085938 -100.578125 62.816406 -104.390625 77.015625 -104.390625 L 83.796875 -104.390625 C 88.640625 -91.972656 95.007812 -78.734375 102.90625 -64.671875 L 111.859375 -48.734375 C 118.117188 -37.773438 122.707031 -28.910156 125.625 -22.140625 L 133.734375 -62.921875 C 136.503906 -76.972656 141.34375 -87.84375 148.25 -95.53125 C 155.164062 -103.21875 163.515625 -107.0625 173.296875 -107.0625 C 176.773438 -107.0625 180.1875 -106.40625 183.53125 -105.09375 L 178.453125 -95.578125 C 174.265625 -98.867188 170.242188 -100.515625 166.390625 -100.515625 C 156.234375 -100.515625 149.414062 -91.671875 145.9375 -73.984375 L 135.359375 -20.875 L 132.046875 0 L 123.015625 3.109375 C 121.316406 -2.203125 116.378906 -12.125 108.203125 -26.65625 L 90.921875 -57.265625 C 86.304688 -65.453125 82.492188 -72.765625 79.484375 -79.203125 L 74.125 -52.046875 C 70.695312 -34.890625 64.972656 -21.703125 56.953125 -12.484375 C 48.941406 -3.265625 39.175781 1.34375 27.65625 1.34375 C 19.5625 1.34375 12.222656 -1.3125 5.640625 -6.625 Z M 5.640625 -6.625 "/></g></g></g></svg>