<?xml version="1.0" encoding="UTF-8" standalone="no"?>
<!DOCTYPE svg PUBLIC "-//W3C//DTD SVG 1.1//EN" "http://www.w3.org/Graphics/SVG/1.1/DTD/svg11.dtd">
<svg width="100%" height="100%" viewBox="0 0 50 43" version="1.1" xmlns="http://www.w3.org/2000/svg" xmlns:xlink="http://www.w3.org/1999/xlink" xml:space="preserve" xmlns:serif="http://www.serif.com/" style="fill-rule:evenodd;clip-rule:evenodd;stroke-linejoin:round;stroke-miterlimit:2;">
    <g transform="matrix(1,0,0,1,-2,0)">
        <path d="M49,12C49,6.481 44.519,2 39,2L15,2C9.481,2 5,6.481 5,12L5,32C5,37.519 9.481,42 15,42L39,42C44.519,42 49,37.519 49,32L49,12Z" style="fill:rgb(247,71,46);"/>
    </g>
    <g transform="matrix(3.44475,0,0,3.44475,-52.2005,-6.67933)">
        <text x="18.381px" y="12.549px" style="font-family:'ArialMT', 'Arial', sans-serif;font-size:12px;fill:white;stroke:white;stroke-width:0.29px;">D</text>
    </g>
    <g transform="matrix(0.6,0,0,0.6,2.8,13.6)">
        <circle cx="9.5" cy="36.5" r="2.5" style="fill:rgb(83,30,90);"/>
    </g>
    <g transform="matrix(0.6,0,0,0.6,1.8,-9.4)">
        <circle cx="9.5" cy="36.5" r="2.5" style="fill:rgb(83,30,90);"/>
    </g>
    <g transform="matrix(0.6,0,0,0.6,35.8,-16.4)">
        <circle cx="9.5" cy="36.5" r="2.5" style="fill:rgb(83,30,90);"/>
    </g>
    <g transform="matrix(0.6,0,0,0.6,38.8,11.6)">
        <circle cx="9.5" cy="36.5" r="2.5" style="fill:rgb(83,30,90);"/>
    </g>
    <g transform="matrix(1,0,0,1,-3,-6)">
        <circle cx="8.5" cy="35.5" r="0.5" style="fill:rgb(83,30,90);"/>
    </g>
    <g transform="matrix(2,0,0,2,-10,-47)">
        <circle cx="8.5" cy="35.5" r="0.5" style="fill:rgb(83,30,90);"/>
    </g>
</svg>
