<svg xmlns="http://www.w3.org/2000/svg" xmlns:xlink="http://www.w3.org/1999/xlink" width="500" zoomAndPan="magnify" viewBox="0 0 375 374.999991" height="500" preserveAspectRatio="xMidYMid meet" version="1.0"><defs><g/><clipPath id="7ae55e48c3"><path d="M 10.035156 16.054688 L 356.9375 16.054688 L 356.9375 362.957031 L 10.035156 362.957031 Z M 10.035156 16.054688 " clip-rule="nonzero"/></clipPath><clipPath id="8a2824e9ae"><path d="M 183.488281 16.054688 C 87.691406 16.054688 10.035156 93.710938 10.035156 189.507812 C 10.035156 285.300781 87.691406 362.957031 183.488281 362.957031 C 279.28125 362.957031 356.9375 285.300781 356.9375 189.507812 C 356.9375 93.710938 279.28125 16.054688 183.488281 16.054688 Z M 183.488281 16.054688 " clip-rule="nonzero"/></clipPath><clipPath id="c8141be893"><path d="M 10.035156 12.042969 L 360.953125 12.042969 L 360.953125 362.957031 L 10.035156 362.957031 Z M 10.035156 12.042969 " clip-rule="nonzero"/></clipPath><clipPath id="95531fd7bd"><path d="M 185.492188 362.957031 C 138.648438 362.957031 94.539062 344.726562 61.4375 311.554688 C 28.269531 278.457031 10.035156 234.34375 10.035156 187.5 C 10.035156 140.65625 28.269531 96.542969 61.4375 63.445312 C 94.539062 30.273438 138.648438 12.042969 185.492188 12.042969 C 232.339844 12.042969 276.449219 30.273438 309.546875 63.445312 C 342.71875 96.613281 360.953125 140.65625 360.953125 187.5 C 360.953125 234.34375 342.71875 278.457031 309.546875 311.554688 C 276.449219 344.726562 232.339844 362.957031 185.492188 362.957031 Z M 185.492188 22.558594 C 141.453125 22.558594 100.007812 39.742188 68.871094 70.878906 C 37.734375 102.015625 20.554688 143.460938 20.554688 187.5 C 20.554688 231.539062 37.734375 272.984375 68.871094 304.121094 C 100.007812 335.257812 141.453125 352.441406 185.492188 352.441406 C 229.535156 352.441406 270.980469 335.257812 302.113281 304.121094 C 333.25 272.984375 350.433594 231.539062 350.433594 187.5 C 350.433594 143.460938 333.25 102.015625 302.113281 70.878906 C 270.980469 39.742188 229.535156 22.558594 185.492188 22.558594 Z M 185.492188 22.558594 " clip-rule="nonzero"/></clipPath></defs><g clip-path="url(#7ae55e48c3)"><g clip-path="url(#8a2824e9ae)"><path fill="#d6d0f6" d="M 10.035156 16.054688 L 356.9375 16.054688 L 356.9375 362.957031 L 10.035156 362.957031 Z M 10.035156 16.054688 " fill-opacity="1" fill-rule="nonzero"/></g></g><g clip-path="url(#c8141be893)"><g clip-path="url(#95531fd7bd)"><path fill="#180d1e" d="M 10.035156 12.042969 L 360.953125 12.042969 L 360.953125 362.957031 L 10.035156 362.957031 Z M 10.035156 12.042969 " fill-opacity="1" fill-rule="nonzero"/></g></g><g fill="#180d1e" fill-opacity="1"><g transform="translate(70.243472, 181.947771)"><g><path d="M 34.859375 4.734375 C 25.765625 5.171875 19.234375 2.910156 15.265625 -2.046875 C 10.472656 1.660156 6.960938 3.515625 4.734375 3.515625 C 3.535156 3.515625 2.648438 2.925781 2.078125 1.75 C 1.503906 0.582031 1.21875 -0.679688 1.21875 -2.046875 C 1.21875 -4.648438 2.226562 -8.40625 4.25 -13.3125 C 6.644531 -18.851562 8.847656 -21.625 10.859375 -21.625 C 11.890625 -21.625 12.675781 -19.992188 13.21875 -16.734375 C 14.144531 -11.835938 14.988281 -8.460938 15.75 -6.609375 C 17.550781 -8.515625 19.796875 -11.097656 22.484375 -14.359375 C 25.179688 -17.628906 28.296875 -21.578125 31.828125 -26.203125 C 40.648438 -37.796875 46.503906 -44.132812 49.390625 -45.21875 C 50.367188 -45.601562 51.347656 -45.796875 52.328125 -45.796875 C 53.410156 -45.796875 54.289062 -45.5625 54.96875 -45.09375 C 55.65625 -44.632812 56 -44.101562 56 -43.5 C 56 -42.582031 55.207031 -42.039062 53.625 -41.875 C 52.476562 -41.269531 51.078125 -40.234375 49.421875 -38.765625 C 47.765625 -37.296875 46.023438 -35.625 44.203125 -33.75 C 42.378906 -31.875 40.675781 -30.023438 39.09375 -28.203125 C 37.519531 -26.378906 36.242188 -24.816406 35.265625 -23.515625 C 29.441406 -15.398438 23.617188 -8.921875 17.796875 -4.078125 L 17.296875 -3.671875 C 19.046875 -1.117188 21.144531 0.644531 23.59375 1.625 C 26.039062 2.613281 28.757812 3.109375 31.75 3.109375 C 36.707031 3.109375 41.425781 2.359375 45.90625 0.859375 C 50.394531 -0.640625 54.445312 -2.867188 58.0625 -5.828125 C 61.6875 -8.796875 64.671875 -12.429688 67.015625 -16.734375 C 69.566406 -21.410156 70.84375 -25.875 70.84375 -30.125 C 70.84375 -33.007812 70.21875 -35.742188 68.96875 -38.328125 C 67.71875 -40.910156 66.046875 -43.125 63.953125 -44.96875 C 61.859375 -46.820312 59.53125 -48.019531 56.96875 -48.5625 C 53.976562 -49.21875 50.851562 -49.546875 47.59375 -49.546875 C 39.207031 -49.546875 31.476562 -47.613281 24.40625 -43.75 C 16.945312 -39.664062 13.21875 -35.09375 13.21875 -30.03125 C 13.21875 -28.675781 13.628906 -27.507812 14.453125 -26.53125 C 15.097656 -25.769531 15.554688 -25.332031 15.828125 -25.21875 L 15.34375 -25.21875 C 13.820312 -25.488281 12.515625 -26.25 11.421875 -27.5 C 10.335938 -28.757812 9.796875 -30.148438 9.796875 -31.671875 C 9.796875 -34.503906 10.675781 -37.101562 12.4375 -39.46875 C 14.207031 -41.832031 16.78125 -43.992188 20.15625 -45.953125 C 26.90625 -49.816406 34.878906 -51.75 44.078125 -51.75 C 46.140625 -51.75 48.203125 -51.640625 50.265625 -51.421875 C 52.335938 -51.203125 54.382812 -50.875 56.40625 -50.4375 C 59.9375 -49.675781 63.144531 -48.234375 66.03125 -46.109375 C 68.914062 -43.992188 71.226562 -41.410156 72.96875 -38.359375 C 74.707031 -35.316406 75.578125 -32.023438 75.578125 -28.484375 C 75.578125 -24.398438 74.382812 -20.179688 72 -15.828125 C 69.601562 -11.421875 66.515625 -7.734375 62.734375 -4.765625 C 58.953125 -1.804688 54.691406 0.445312 49.953125 2 C 45.222656 3.550781 40.191406 4.460938 34.859375 4.734375 Z M 5.140625 2.046875 C 7.484375 1.003906 10.3125 -1.144531 13.625 -4.40625 C 12.050781 -7.019531 11.019531 -9.222656 10.53125 -11.015625 C 10.207031 -12.210938 9.960938 -14.035156 9.796875 -16.484375 C 6.035156 -11.097656 4.15625 -6.390625 4.15625 -2.359375 C 4.15625 -0.679688 4.484375 0.785156 5.140625 2.046875 Z M 5.140625 2.046875 "/></g></g></g><g fill="#180d1e" fill-opacity="1"><g transform="translate(150.644346, 181.947771)"><g><path d="M 18.046875 -28.078125 C 17.117188 -28.078125 16.3125 -28.375 15.625 -28.96875 C 14.945312 -29.570312 14.609375 -30.253906 14.609375 -31.015625 C 14.609375 -32.535156 15.644531 -33.296875 17.71875 -33.296875 C 18.476562 -33.296875 19.238281 -33.035156 20 -32.515625 C 20.757812 -32.003906 21.140625 -31.367188 21.140625 -30.609375 C 21.140625 -29.953125 20.785156 -29.363281 20.078125 -28.84375 C 19.367188 -28.332031 18.691406 -28.078125 18.046875 -28.078125 Z M 2.9375 0.890625 C 1.738281 0.890625 0.75 0.5 -0.03125 -0.28125 C -0.820312 -1.070312 -1.21875 -2.472656 -1.21875 -4.484375 C -1.21875 -5.628906 -0.957031 -6.945312 -0.4375 -8.4375 C 0.0703125 -9.9375 0.71875 -11.445312 1.5 -12.96875 C 2.289062 -14.5 3.070312 -15.863281 3.84375 -17.0625 C 6.882812 -22.007812 9.382812 -24.507812 11.34375 -24.5625 C 11.832031 -24.5625 12.429688 -24.359375 13.140625 -23.953125 C 13.847656 -23.546875 14.203125 -23.097656 14.203125 -22.609375 C 14.203125 -22.609375 12.132812 -19.941406 8 -14.609375 C 3.914062 -9.328125 1.875 -5.570312 1.875 -3.34375 C 1.875 -1.601562 2.554688 -0.734375 3.921875 -0.734375 C 4.785156 -0.734375 5.910156 -1.097656 7.296875 -1.828125 C 8.691406 -2.566406 10.148438 -3.503906 11.671875 -4.640625 C 13.191406 -5.785156 14.644531 -7.007812 16.03125 -8.3125 C 17.425781 -9.625 18.554688 -10.828125 19.421875 -11.921875 C 19.972656 -12.628906 20.453125 -13.117188 20.859375 -13.390625 C 21.265625 -13.660156 21.519531 -13.796875 21.625 -13.796875 C 21.84375 -13.796875 21.953125 -13.632812 21.953125 -13.3125 C 21.953125 -13.03125 21.640625 -12.484375 21.015625 -11.671875 C 20.390625 -10.859375 19.535156 -9.90625 18.453125 -8.8125 C 17.140625 -7.507812 15.691406 -6.09375 14.109375 -4.5625 C 12.535156 -3.039062 10.820312 -1.75 8.96875 -0.6875 C 7.125 0.363281 5.113281 0.890625 2.9375 0.890625 Z M 2.9375 0.890625 "/></g></g></g><g fill="#180d1e" fill-opacity="1"><g transform="translate(174.315666, 181.947771)"><g><path d="M 5.0625 0.484375 C 3.320312 0.484375 1.945312 0.0625 0.9375 -0.78125 C -0.0703125 -1.625 -0.578125 -3.132812 -0.578125 -5.3125 C -0.578125 -6.5625 -0.195312 -8.148438 0.5625 -10.078125 C 1.332031 -12.015625 2.285156 -14.097656 3.421875 -16.328125 C 4.566406 -18.554688 5.710938 -20.757812 6.859375 -22.9375 C 6.148438 -22.769531 5.523438 -22.6875 4.984375 -22.6875 C 3.347656 -22.6875 2.53125 -23.3125 2.53125 -24.5625 C 2.53125 -25.164062 2.757812 -25.628906 3.21875 -25.953125 C 3.6875 -26.285156 4.109375 -26.476562 4.484375 -26.53125 C 4.484375 -26.53125 4.550781 -26.53125 4.6875 -26.53125 C 4.820312 -26.53125 5 -26.554688 5.21875 -26.609375 L 9.953125 -26.609375 C 10.929688 -27.859375 11.941406 -29.191406 12.984375 -30.609375 C 14.453125 -32.460938 15.617188 -33.550781 16.484375 -33.875 L 16.734375 -33.875 C 17.109375 -33.875 17.648438 -33.679688 18.359375 -33.296875 C 19.234375 -32.804688 19.671875 -32.316406 19.671875 -31.828125 C 19.671875 -31.117188 18.363281 -29.296875 15.75 -26.359375 C 16.238281 -26.304688 16.945312 -26.28125 17.875 -26.28125 C 18.800781 -26.28125 19.941406 -26.28125 21.296875 -26.28125 C 21.953125 -26.28125 22.890625 -26.28125 24.109375 -26.28125 C 25.335938 -26.28125 26.617188 -26.289062 27.953125 -26.3125 C 29.285156 -26.34375 30.441406 -26.375 31.421875 -26.40625 C 32.398438 -26.4375 32.945312 -26.453125 33.0625 -26.453125 C 33.21875 -26.390625 33.296875 -26.304688 33.296875 -26.203125 C 33.296875 -25.710938 30.085938 -25.0625 23.671875 -24.25 C 20.023438 -23.757812 17.234375 -23.375 15.296875 -23.09375 C 13.367188 -22.820312 12.320312 -22.660156 12.15625 -22.609375 C 11.394531 -21.953125 10.46875 -20.832031 9.375 -19.25 C 8.289062 -17.675781 7.203125 -15.910156 6.109375 -13.953125 C 5.023438 -11.992188 4.113281 -10.128906 3.375 -8.359375 C 2.644531 -6.597656 2.28125 -5.226562 2.28125 -4.25 C 2.28125 -3.375 2.609375 -2.648438 3.265625 -2.078125 C 3.921875 -1.503906 4.984375 -1.21875 6.453125 -1.21875 C 7.429688 -1.21875 8.597656 -1.4375 9.953125 -1.875 C 11.316406 -2.3125 12.609375 -2.816406 13.828125 -3.390625 C 15.054688 -3.960938 15.941406 -4.410156 16.484375 -4.734375 C 17.898438 -5.609375 19.460938 -6.765625 21.171875 -8.203125 C 22.890625 -9.640625 24.59375 -11.285156 26.28125 -13.140625 C 27.039062 -13.898438 27.554688 -14.28125 27.828125 -14.28125 C 27.992188 -14.28125 28.078125 -14.171875 28.078125 -13.953125 C 28.078125 -13.523438 27.671875 -12.816406 26.859375 -11.828125 C 25.546875 -10.253906 24.085938 -8.742188 22.484375 -7.296875 C 20.878906 -5.859375 19.097656 -4.539062 17.140625 -3.34375 C 14.910156 -1.988281 12.773438 -1.007812 10.734375 -0.40625 C 8.691406 0.1875 6.800781 0.484375 5.0625 0.484375 Z M 5.0625 0.484375 "/></g></g></g><g fill="#180d1e" fill-opacity="1"><g transform="translate(203.782382, 181.947771)"><g><path d="M 5.46875 0.40625 C 4.164062 0.40625 2.859375 -0.0507812 1.546875 -0.96875 C 0.242188 -1.894531 -0.488281 -2.988281 -0.65625 -4.25 C -1.195312 -8.4375 1.441406 -13.414062 7.265625 -19.1875 C 13.035156 -24.945312 18.234375 -27.828125 22.859375 -27.828125 C 24.109375 -27.828125 25.085938 -27.53125 25.796875 -26.9375 C 26.171875 -26.550781 26.453125 -26.03125 26.640625 -25.375 C 26.835938 -24.726562 26.988281 -24.40625 27.09375 -24.40625 C 27.3125 -24.40625 27.503906 -24.445312 27.671875 -24.53125 C 27.835938 -24.613281 28.03125 -24.65625 28.25 -24.65625 C 28.894531 -24.65625 29.460938 -24.410156 29.953125 -23.921875 C 30.441406 -23.429688 30.710938 -22.992188 30.765625 -22.609375 C 30.828125 -22.503906 29.085938 -19.8125 25.546875 -14.53125 C 22.015625 -9.363281 20.410156 -5.851562 20.734375 -4 C 21.003906 -2.75 21.601562 -2.125 22.53125 -2.125 C 25.351562 -2.125 30.519531 -6.800781 38.03125 -16.15625 C 38.195312 -16.375 38.363281 -16.484375 38.53125 -16.484375 C 38.800781 -16.484375 38.9375 -16.296875 38.9375 -15.921875 C 38.9375 -15.484375 38.691406 -14.9375 38.203125 -14.28125 C 31.285156 -4.976562 25.976562 -0.328125 22.28125 -0.328125 C 21.789062 -0.328125 21.328125 -0.410156 20.890625 -0.578125 C 18.492188 -1.492188 17.296875 -3.285156 17.296875 -5.953125 C 17.296875 -6.878906 17.40625 -7.804688 17.625 -8.734375 L 12.5625 -3.84375 C 11.039062 -2.3125 9.664062 -1.21875 8.4375 -0.5625 C 7.21875 0.0820312 6.226562 0.40625 5.46875 0.40625 Z M 4.734375 -1.390625 C 7.890625 -1.390625 12.1875 -4.84375 17.625 -11.75 L 26.28125 -23.671875 C 25.84375 -24.429688 25.132812 -24.8125 24.15625 -24.8125 C 20.84375 -24.8125 16.351562 -22.144531 10.6875 -16.8125 C 4.8125 -11.375 2.175781 -6.882812 2.78125 -3.34375 C 3.050781 -2.039062 3.703125 -1.390625 4.734375 -1.390625 Z M 4.734375 -1.390625 "/></g></g></g><g fill="#2d3455" fill-opacity="1"><g transform="translate(103.310169, 78.874106)"><g><path d="M -1.984375 -8.578125 C -2.128906 -8.847656 -2.265625 -9.054688 -2.390625 -9.203125 C -2.523438 -9.359375 -2.65625 -9.457031 -2.78125 -9.5 C -2.914062 -9.550781 -3.050781 -9.566406 -3.1875 -9.546875 C -3.320312 -9.535156 -3.46875 -9.5 -3.625 -9.4375 L -3.984375 -9.3125 L -4.6875 -10.78125 C -4.539062 -10.832031 -4.359375 -10.910156 -4.140625 -11.015625 C -3.953125 -11.109375 -3.71875 -11.21875 -3.4375 -11.34375 C -3.164062 -11.476562 -2.859375 -11.640625 -2.515625 -11.828125 C -2.015625 -12.097656 -1.5625 -12.363281 -1.15625 -12.625 C -0.757812 -12.882812 -0.363281 -13.117188 0.03125 -13.328125 C 0.601562 -13.640625 1.140625 -13.851562 1.640625 -13.96875 C 2.140625 -14.082031 2.597656 -14.101562 3.015625 -14.03125 C 3.441406 -13.96875 3.8125 -13.816406 4.125 -13.578125 C 4.4375 -13.347656 4.691406 -13.046875 4.890625 -12.671875 C 5.015625 -12.429688 5.113281 -12.179688 5.1875 -11.921875 C 5.257812 -11.671875 5.300781 -11.421875 5.3125 -11.171875 C 5.320312 -10.929688 5.3125 -10.703125 5.28125 -10.484375 C 5.257812 -10.265625 5.222656 -10.070312 5.171875 -9.90625 C 5.460938 -9.9375 5.75 -9.925781 6.03125 -9.875 C 6.3125 -9.832031 6.582031 -9.75 6.84375 -9.625 C 7.101562 -9.507812 7.34375 -9.335938 7.5625 -9.109375 C 7.789062 -8.890625 7.992188 -8.609375 8.171875 -8.265625 C 8.421875 -7.804688 8.5625 -7.335938 8.59375 -6.859375 C 8.632812 -6.390625 8.566406 -5.925781 8.390625 -5.46875 C 8.210938 -5.007812 7.929688 -4.570312 7.546875 -4.15625 C 7.160156 -3.738281 6.660156 -3.367188 6.046875 -3.046875 C 5.765625 -2.890625 5.476562 -2.75 5.1875 -2.625 C 4.90625 -2.507812 4.617188 -2.394531 4.328125 -2.28125 C 4.035156 -2.164062 3.75 -2.039062 3.46875 -1.90625 C 3.195312 -1.78125 2.9375 -1.648438 2.6875 -1.515625 C 2.34375 -1.335938 2 -1.148438 1.65625 -0.953125 C 1.320312 -0.753906 0.953125 -0.515625 0.546875 -0.234375 L -0.15625 -1.703125 C -0.0390625 -1.796875 0.0820312 -1.882812 0.21875 -1.96875 C 0.332031 -2.039062 0.457031 -2.117188 0.59375 -2.203125 C 0.738281 -2.296875 0.878906 -2.378906 1.015625 -2.453125 C 0.910156 -2.703125 0.78125 -3 0.625 -3.34375 C 0.46875 -3.6875 0.296875 -4.046875 0.109375 -4.421875 C -0.0664062 -4.796875 -0.253906 -5.1875 -0.453125 -5.59375 C -0.648438 -6 -0.835938 -6.378906 -1.015625 -6.734375 C -1.203125 -7.097656 -1.378906 -7.441406 -1.546875 -7.765625 C -1.722656 -8.085938 -1.867188 -8.359375 -1.984375 -8.578125 Z M 5.4375 -6.78125 C 5.332031 -6.988281 5.195312 -7.15625 5.03125 -7.28125 C 4.875 -7.414062 4.691406 -7.503906 4.484375 -7.546875 C 4.273438 -7.585938 4.035156 -7.578125 3.765625 -7.515625 C 3.503906 -7.460938 3.21875 -7.351562 2.90625 -7.1875 C 2.769531 -7.113281 2.625 -7.023438 2.46875 -6.921875 C 2.3125 -6.828125 2.179688 -6.753906 2.078125 -6.703125 L 3.390625 -4.140625 C 3.515625 -4.140625 3.644531 -4.144531 3.78125 -4.15625 C 3.925781 -4.164062 4.0625 -4.191406 4.1875 -4.234375 C 4.320312 -4.285156 4.441406 -4.332031 4.546875 -4.375 C 4.660156 -4.425781 4.75 -4.460938 4.8125 -4.484375 C 5.007812 -4.597656 5.179688 -4.734375 5.328125 -4.890625 C 5.472656 -5.046875 5.578125 -5.21875 5.640625 -5.40625 C 5.703125 -5.59375 5.71875 -5.800781 5.6875 -6.03125 C 5.65625 -6.269531 5.570312 -6.519531 5.4375 -6.78125 Z M 2 -8.78125 C 2.164062 -8.875 2.332031 -8.960938 2.5 -9.046875 C 2.675781 -9.128906 2.851562 -9.210938 3.03125 -9.296875 C 3.070312 -9.503906 3.082031 -9.734375 3.0625 -9.984375 C 3.039062 -10.234375 2.972656 -10.472656 2.859375 -10.703125 C 2.722656 -10.941406 2.5625 -11.140625 2.375 -11.296875 C 2.195312 -11.453125 1.992188 -11.554688 1.765625 -11.609375 C 1.546875 -11.671875 1.3125 -11.679688 1.0625 -11.640625 C 0.820312 -11.597656 0.570312 -11.507812 0.3125 -11.375 C 0.269531 -11.351562 0.203125 -11.316406 0.109375 -11.265625 C 0.0234375 -11.222656 -0.03125 -11.1875 -0.0625 -11.15625 C 0.09375 -10.832031 0.242188 -10.503906 0.390625 -10.171875 C 0.523438 -9.898438 0.664062 -9.601562 0.8125 -9.28125 C 0.96875 -8.957031 1.117188 -8.648438 1.265625 -8.359375 C 1.304688 -8.378906 1.359375 -8.410156 1.421875 -8.453125 C 1.484375 -8.503906 1.546875 -8.546875 1.609375 -8.578125 C 1.679688 -8.617188 1.753906 -8.65625 1.828125 -8.6875 C 1.898438 -8.726562 1.957031 -8.757812 2 -8.78125 Z M 2 -8.78125 "/></g></g></g><g fill="#2d3455" fill-opacity="1"><g transform="translate(125.071288, 68.191679)"><g><path d="M 9.40625 -7.90625 C 9.789062 -6.457031 9.722656 -5.222656 9.203125 -4.203125 C 8.691406 -3.179688 7.703125 -2.40625 6.234375 -1.875 C 5.535156 -1.625 4.878906 -1.488281 4.265625 -1.46875 C 3.648438 -1.457031 3.09375 -1.550781 2.59375 -1.75 C 2.09375 -1.945312 1.648438 -2.242188 1.265625 -2.640625 C 0.878906 -3.046875 0.582031 -3.546875 0.375 -4.140625 C 0.320312 -4.265625 0.253906 -4.445312 0.171875 -4.6875 C 0.0976562 -4.925781 0.015625 -5.195312 -0.078125 -5.5 C -0.179688 -5.8125 -0.28125 -6.128906 -0.375 -6.453125 C -0.476562 -6.785156 -0.578125 -7.09375 -0.671875 -7.375 C -0.765625 -7.664062 -0.847656 -7.925781 -0.921875 -8.15625 C -0.992188 -8.382812 -1.046875 -8.546875 -1.078125 -8.640625 C -1.179688 -8.929688 -1.285156 -9.15625 -1.390625 -9.3125 C -1.503906 -9.46875 -1.625 -9.582031 -1.75 -9.65625 C -1.875 -9.726562 -2.003906 -9.765625 -2.140625 -9.765625 C -2.285156 -9.773438 -2.441406 -9.765625 -2.609375 -9.734375 L -2.9375 -9.65625 L -3.421875 -11.21875 C -3.191406 -11.28125 -2.941406 -11.347656 -2.671875 -11.421875 C -2.421875 -11.492188 -2.132812 -11.578125 -1.8125 -11.671875 C -1.5 -11.765625 -1.15625 -11.878906 -0.78125 -12.015625 C -0.414062 -12.140625 -0.015625 -12.285156 0.421875 -12.453125 C 0.859375 -12.628906 1.351562 -12.851562 1.90625 -13.125 L 2.390625 -11.5625 C 2.242188 -11.488281 2.109375 -11.425781 1.984375 -11.375 C 1.859375 -11.3125 1.71875 -11.25 1.5625 -11.1875 C 1.414062 -11.125 1.269531 -11.066406 1.125 -11.015625 C 1.632812 -9.421875 2.03125 -8.179688 2.3125 -7.296875 C 2.59375 -6.421875 2.78125 -5.859375 2.875 -5.609375 C 3.039062 -5.148438 3.238281 -4.773438 3.46875 -4.484375 C 3.707031 -4.191406 3.96875 -3.972656 4.25 -3.828125 C 4.53125 -3.691406 4.828125 -3.625 5.140625 -3.625 C 5.460938 -3.625 5.785156 -3.679688 6.109375 -3.796875 C 6.484375 -3.929688 6.789062 -4.109375 7.03125 -4.328125 C 7.269531 -4.554688 7.441406 -4.8125 7.546875 -5.09375 C 7.660156 -5.382812 7.710938 -5.703125 7.703125 -6.046875 C 7.691406 -6.390625 7.617188 -6.753906 7.484375 -7.140625 C 7.265625 -7.804688 7.070312 -8.375 6.90625 -8.84375 C 6.75 -9.3125 6.617188 -9.695312 6.515625 -10 C 6.410156 -10.3125 6.328125 -10.550781 6.265625 -10.71875 C 6.203125 -10.894531 6.15625 -11.019531 6.125 -11.09375 C 6.101562 -11.164062 6.085938 -11.207031 6.078125 -11.21875 C 6.078125 -11.238281 6.078125 -11.253906 6.078125 -11.265625 C 5.972656 -11.535156 5.863281 -11.742188 5.75 -11.890625 C 5.632812 -12.046875 5.515625 -12.15625 5.390625 -12.21875 C 5.273438 -12.289062 5.148438 -12.328125 5.015625 -12.328125 C 4.878906 -12.335938 4.726562 -12.320312 4.5625 -12.28125 L 4.21875 -12.21875 L 3.75 -13.78125 C 3.914062 -13.8125 4.117188 -13.863281 4.359375 -13.9375 C 4.578125 -14 4.832031 -14.070312 5.125 -14.15625 C 5.414062 -14.238281 5.75 -14.347656 6.125 -14.484375 C 6.300781 -14.546875 6.484375 -14.613281 6.671875 -14.6875 C 6.867188 -14.769531 7.070312 -14.847656 7.28125 -14.921875 C 7.488281 -15.003906 7.707031 -15.097656 7.9375 -15.203125 C 8.175781 -15.304688 8.4375 -15.425781 8.71875 -15.5625 L 9.203125 -14 C 9.066406 -13.925781 8.929688 -13.859375 8.796875 -13.796875 C 8.660156 -13.742188 8.515625 -13.679688 8.359375 -13.609375 C 8.210938 -13.546875 8.0625 -13.488281 7.90625 -13.4375 Z M 9.40625 -7.90625 "/></g></g></g><g fill="#2d3455" fill-opacity="1"><g transform="translate(149.840051, 60.420379)"><g><path d="M 3.296875 -10.953125 C 2.890625 -10.867188 2.578125 -10.710938 2.359375 -10.484375 C 2.148438 -10.253906 2.078125 -9.984375 2.140625 -9.671875 C 2.171875 -9.492188 2.238281 -9.34375 2.34375 -9.21875 C 2.457031 -9.09375 2.59375 -8.976562 2.75 -8.875 C 2.90625 -8.769531 3.085938 -8.675781 3.296875 -8.59375 C 3.503906 -8.519531 3.726562 -8.445312 3.96875 -8.375 L 5.546875 -7.90625 C 5.941406 -7.789062 6.320312 -7.65625 6.6875 -7.5 C 7.0625 -7.351562 7.40625 -7.164062 7.71875 -6.9375 C 8.03125 -6.71875 8.300781 -6.445312 8.53125 -6.125 C 8.757812 -5.800781 8.921875 -5.414062 9.015625 -4.96875 C 9.097656 -4.570312 9.09375 -4.15625 9 -3.71875 C 8.90625 -3.28125 8.695312 -2.863281 8.375 -2.46875 C 8.0625 -2.070312 7.625 -1.707031 7.0625 -1.375 C 6.5 -1.050781 5.78125 -0.800781 4.90625 -0.625 C 4.53125 -0.550781 4.148438 -0.488281 3.765625 -0.4375 C 3.378906 -0.382812 3.003906 -0.34375 2.640625 -0.3125 C 2.285156 -0.289062 1.945312 -0.273438 1.625 -0.265625 C 1.3125 -0.265625 1.015625 -0.273438 0.734375 -0.296875 L 0.140625 -4.015625 L 2.03125 -4.390625 L 2.109375 -4.109375 C 2.179688 -3.910156 2.273438 -3.695312 2.390625 -3.46875 C 2.503906 -3.25 2.660156 -3.054688 2.859375 -2.890625 C 3.066406 -2.734375 3.328125 -2.617188 3.640625 -2.546875 C 3.960938 -2.472656 4.359375 -2.484375 4.828125 -2.578125 C 5.273438 -2.660156 5.617188 -2.8125 5.859375 -3.03125 C 6.109375 -3.257812 6.203125 -3.535156 6.140625 -3.859375 C 6.109375 -4.003906 6.039062 -4.140625 5.9375 -4.265625 C 5.832031 -4.390625 5.703125 -4.5 5.546875 -4.59375 C 5.398438 -4.6875 5.21875 -4.773438 5 -4.859375 C 4.789062 -4.941406 4.554688 -5.023438 4.296875 -5.109375 L 2.53125 -5.640625 C 2.144531 -5.753906 1.773438 -5.890625 1.421875 -6.046875 C 1.066406 -6.203125 0.742188 -6.390625 0.453125 -6.609375 C 0.171875 -6.828125 -0.0664062 -7.085938 -0.265625 -7.390625 C -0.472656 -7.703125 -0.617188 -8.066406 -0.703125 -8.484375 C -0.765625 -8.765625 -0.796875 -9.050781 -0.796875 -9.34375 C -0.796875 -9.632812 -0.753906 -9.921875 -0.671875 -10.203125 C -0.597656 -10.484375 -0.472656 -10.757812 -0.296875 -11.03125 C -0.128906 -11.300781 0.101562 -11.546875 0.40625 -11.765625 C 0.707031 -11.992188 1.070312 -12.203125 1.5 -12.390625 C 1.9375 -12.585938 2.457031 -12.75 3.0625 -12.875 C 3.4375 -12.945312 3.8125 -13.003906 4.1875 -13.046875 C 4.570312 -13.097656 4.941406 -13.140625 5.296875 -13.171875 C 5.648438 -13.203125 5.988281 -13.210938 6.3125 -13.203125 C 6.632812 -13.203125 6.925781 -13.203125 7.1875 -13.203125 L 7.6875 -9.453125 L 5.78125 -9.078125 L 5.71875 -9.28125 C 5.632812 -9.5 5.535156 -9.71875 5.421875 -9.9375 C 5.316406 -10.15625 5.175781 -10.351562 5 -10.53125 C 4.820312 -10.71875 4.59375 -10.851562 4.3125 -10.9375 C 4.039062 -11.03125 3.703125 -11.035156 3.296875 -10.953125 Z M 3.296875 -10.953125 "/></g></g></g><g fill="#2d3455" fill-opacity="1"><g transform="translate(172.740828, 56.765448)"><g><path d="M 0.15625 -11.75 C 0.394531 -11.75 0.664062 -11.75 0.96875 -11.75 C 1.21875 -11.75 1.507812 -11.75 1.84375 -11.75 C 2.1875 -11.757812 2.554688 -11.78125 2.953125 -11.8125 C 3.335938 -11.832031 3.765625 -11.863281 4.234375 -11.90625 C 4.710938 -11.957031 5.253906 -12.039062 5.859375 -12.15625 L 5.890625 -10.53125 C 5.742188 -10.5 5.59375 -10.46875 5.4375 -10.4375 C 5.300781 -10.414062 5.148438 -10.390625 4.984375 -10.359375 C 4.828125 -10.335938 4.671875 -10.320312 4.515625 -10.3125 C 4.515625 -9.988281 4.519531 -9.628906 4.53125 -9.234375 C 4.539062 -8.847656 4.546875 -8.441406 4.546875 -8.015625 C 4.554688 -7.597656 4.566406 -7.171875 4.578125 -6.734375 C 4.597656 -6.296875 4.617188 -5.878906 4.640625 -5.484375 C 4.660156 -5.097656 4.675781 -4.734375 4.6875 -4.390625 C 4.707031 -4.046875 4.726562 -3.753906 4.75 -3.515625 C 4.769531 -3.203125 4.8125 -2.953125 4.875 -2.765625 C 4.9375 -2.585938 5.015625 -2.445312 5.109375 -2.34375 C 5.210938 -2.238281 5.332031 -2.164062 5.46875 -2.125 C 5.613281 -2.09375 5.769531 -2.070312 5.9375 -2.0625 L 6.265625 -2.03125 L 6.3125 -0.390625 C 6.0625 -0.398438 5.785156 -0.40625 5.484375 -0.40625 C 5.234375 -0.40625 4.9375 -0.394531 4.59375 -0.375 C 4.257812 -0.363281 3.894531 -0.347656 3.5 -0.328125 C 3.113281 -0.296875 2.6875 -0.257812 2.21875 -0.21875 C 1.75 -0.175781 1.210938 -0.101562 0.609375 0 L 0.5625 -1.625 C 0.707031 -1.65625 0.859375 -1.679688 1.015625 -1.703125 C 1.148438 -1.722656 1.296875 -1.742188 1.453125 -1.765625 C 1.617188 -1.796875 1.78125 -1.816406 1.9375 -1.828125 C 1.9375 -2.148438 1.929688 -2.507812 1.921875 -2.90625 C 1.921875 -3.300781 1.910156 -3.707031 1.890625 -4.125 C 1.878906 -4.550781 1.867188 -4.976562 1.859375 -5.40625 C 1.847656 -5.84375 1.832031 -6.253906 1.8125 -6.640625 C 1.789062 -7.035156 1.769531 -7.40625 1.75 -7.75 C 1.738281 -8.09375 1.722656 -8.390625 1.703125 -8.640625 C 1.679688 -8.941406 1.640625 -9.1875 1.578125 -9.375 C 1.515625 -9.570312 1.429688 -9.71875 1.328125 -9.8125 C 1.234375 -9.90625 1.113281 -9.972656 0.96875 -10.015625 C 0.832031 -10.054688 0.679688 -10.078125 0.515625 -10.078125 L 0.1875 -10.125 Z M 0.15625 -11.75 "/></g></g></g><g fill="#2d3455" fill-opacity="1"><g transform="translate(192.574004, 56.01885)"><g><path d="M 10.515625 -7.59375 C 10.523438 -7.945312 10.503906 -8.234375 10.453125 -8.453125 C 10.410156 -8.671875 10.335938 -8.84375 10.234375 -8.96875 C 10.140625 -9.101562 10.019531 -9.203125 9.875 -9.265625 C 9.738281 -9.335938 9.578125 -9.390625 9.390625 -9.421875 L 9 -9.515625 L 9.1875 -11.125 C 9.4375 -11.082031 9.695312 -11.039062 9.96875 -11 C 10.195312 -10.96875 10.445312 -10.929688 10.71875 -10.890625 C 11 -10.859375 11.273438 -10.832031 11.546875 -10.8125 C 11.734375 -10.800781 11.921875 -10.789062 12.109375 -10.78125 C 12.296875 -10.78125 12.492188 -10.773438 12.703125 -10.765625 C 12.910156 -10.765625 13.132812 -10.765625 13.375 -10.765625 C 13.613281 -10.765625 13.890625 -10.769531 14.203125 -10.78125 L 14.03125 -9.1875 C 13.90625 -9.175781 13.78125 -9.164062 13.65625 -9.15625 C 13.539062 -9.15625 13.410156 -9.148438 13.265625 -9.140625 C 13.117188 -9.140625 12.96875 -9.144531 12.8125 -9.15625 L 12.234375 -3.84375 C 12.191406 -3.320312 12.148438 -2.851562 12.109375 -2.4375 C 12.066406 -2.03125 12.03125 -1.644531 12 -1.28125 C 11.976562 -0.914062 11.953125 -0.566406 11.921875 -0.234375 C 11.890625 0.0976562 11.863281 0.4375 11.84375 0.78125 L 10.109375 1.03125 L 4.53125 -6.8125 L 4.21875 -6.796875 L 4.140625 -3.140625 C 4.117188 -2.785156 4.128906 -2.492188 4.171875 -2.265625 C 4.222656 -2.046875 4.296875 -1.867188 4.390625 -1.734375 C 4.492188 -1.609375 4.613281 -1.507812 4.75 -1.4375 C 4.894531 -1.375 5.0625 -1.328125 5.25 -1.296875 L 5.65625 -1.203125 L 5.46875 0.421875 C 5.207031 0.378906 4.941406 0.335938 4.671875 0.296875 C 4.441406 0.265625 4.1875 0.234375 3.90625 0.203125 C 3.625 0.171875 3.351562 0.144531 3.09375 0.125 C 2.894531 0.113281 2.703125 0.101562 2.515625 0.09375 C 2.328125 0.0820312 2.128906 0.0703125 1.921875 0.0625 C 1.722656 0.0625 1.5 0.0625 1.25 0.0625 C 1.007812 0.0703125 0.738281 0.078125 0.4375 0.078125 L 0.625 -1.546875 C 0.738281 -1.554688 0.863281 -1.5625 1 -1.5625 C 1.113281 -1.5625 1.242188 -1.5625 1.390625 -1.5625 C 1.546875 -1.570312 1.703125 -1.570312 1.859375 -1.5625 L 2.421875 -6.9375 C 2.515625 -7.800781 2.59375 -8.554688 2.65625 -9.203125 C 2.71875 -9.847656 2.765625 -10.425781 2.796875 -10.9375 L 2.828125 -11.5 L 4.5 -11.734375 L 10.09375 -3.890625 L 10.40625 -3.90625 Z M 10.515625 -7.59375 "/></g></g></g><g fill="#2d3455" fill-opacity="1"><g transform="translate(218.833984, 58.822298)"><g><path d="M 7.203125 -0.390625 C 7.523438 -0.335938 7.800781 -0.332031 8.03125 -0.375 C 8.269531 -0.425781 8.472656 -0.515625 8.640625 -0.640625 C 8.816406 -0.773438 8.972656 -0.957031 9.109375 -1.1875 C 9.253906 -1.414062 9.398438 -1.6875 9.546875 -2 L 11.5 -1.578125 L 10.109375 2.421875 C 9.222656 2.140625 8.296875 1.867188 7.328125 1.609375 C 6.367188 1.359375 5.367188 1.117188 4.328125 0.890625 C 4.003906 0.816406 3.6875 0.75 3.375 0.6875 C 3.070312 0.625 2.769531 0.5625 2.46875 0.5 C 2.164062 0.445312 1.859375 0.390625 1.546875 0.328125 C 1.234375 0.273438 0.910156 0.222656 0.578125 0.171875 L 1 -1.40625 C 1.164062 -1.382812 1.328125 -1.363281 1.484375 -1.34375 C 1.640625 -1.320312 1.796875 -1.296875 1.953125 -1.265625 C 2.109375 -1.242188 2.25 -1.21875 2.375 -1.1875 C 2.457031 -1.457031 2.546875 -1.769531 2.640625 -2.125 C 2.742188 -2.476562 2.847656 -2.859375 2.953125 -3.265625 C 3.066406 -3.679688 3.175781 -4.101562 3.28125 -4.53125 C 3.394531 -4.96875 3.5 -5.382812 3.59375 -5.78125 C 3.695312 -6.175781 3.789062 -6.550781 3.875 -6.90625 C 3.957031 -7.257812 4.023438 -7.554688 4.078125 -7.796875 C 4.148438 -8.085938 4.179688 -8.332031 4.171875 -8.53125 C 4.171875 -8.738281 4.132812 -8.90625 4.0625 -9.03125 C 3.988281 -9.15625 3.890625 -9.253906 3.765625 -9.328125 C 3.648438 -9.410156 3.515625 -9.476562 3.359375 -9.53125 L 3.046875 -9.671875 L 3.484375 -11.234375 C 3.804688 -11.117188 4.132812 -11.015625 4.46875 -10.921875 C 4.800781 -10.828125 5.148438 -10.734375 5.515625 -10.640625 C 5.878906 -10.554688 6.253906 -10.460938 6.640625 -10.359375 C 7.023438 -10.265625 7.4375 -10.171875 7.875 -10.078125 C 8.6875 -9.898438 9.535156 -9.722656 10.421875 -9.546875 C 11.316406 -9.378906 12.242188 -9.222656 13.203125 -9.078125 L 12.09375 -5.28125 L 10.203125 -5.6875 L 10.25 -6.171875 C 10.269531 -6.378906 10.269531 -6.570312 10.25 -6.75 C 10.226562 -6.925781 10.175781 -7.085938 10.09375 -7.234375 C 10.019531 -7.378906 9.90625 -7.5 9.75 -7.59375 C 9.601562 -7.695312 9.414062 -7.789062 9.1875 -7.875 L 7.234375 -8.53125 L 6.4375 -5.484375 L 9.703125 -4.921875 L 9.171875 -2.90625 L 6 -3.8125 L 5.21875 -0.71875 Z M 7.203125 -0.390625 "/></g></g></g><g fill="#2d3455" fill-opacity="1"><g transform="translate(242.277998, 64.954786)"><g><path d="M 8.578125 -7.5625 C 8.191406 -7.707031 7.847656 -7.738281 7.546875 -7.65625 C 7.242188 -7.570312 7.035156 -7.378906 6.921875 -7.078125 C 6.859375 -6.910156 6.835938 -6.742188 6.859375 -6.578125 C 6.890625 -6.421875 6.941406 -6.257812 7.015625 -6.09375 C 7.097656 -5.925781 7.207031 -5.75 7.34375 -5.5625 C 7.476562 -5.382812 7.628906 -5.203125 7.796875 -5.015625 L 8.890625 -3.78125 C 9.148438 -3.476562 9.398438 -3.164062 9.640625 -2.84375 C 9.878906 -2.519531 10.070312 -2.179688 10.21875 -1.828125 C 10.363281 -1.472656 10.445312 -1.097656 10.46875 -0.703125 C 10.5 -0.316406 10.4375 0.09375 10.28125 0.53125 C 10.132812 0.90625 9.90625 1.253906 9.59375 1.578125 C 9.289062 1.910156 8.898438 2.160156 8.421875 2.328125 C 7.941406 2.492188 7.375 2.566406 6.71875 2.546875 C 6.070312 2.535156 5.332031 2.375 4.5 2.0625 C 4.132812 1.925781 3.773438 1.773438 3.421875 1.609375 C 3.078125 1.453125 2.742188 1.289062 2.421875 1.125 C 2.097656 0.957031 1.796875 0.789062 1.515625 0.625 C 1.242188 0.457031 1 0.300781 0.78125 0.15625 L 2.234375 -3.328125 L 4.046875 -2.65625 L 3.96875 -2.375 C 3.914062 -2.164062 3.878906 -1.9375 3.859375 -1.6875 C 3.835938 -1.445312 3.867188 -1.195312 3.953125 -0.9375 C 4.046875 -0.6875 4.207031 -0.445312 4.4375 -0.21875 C 4.675781 0 5.019531 0.191406 5.46875 0.359375 C 5.882812 0.515625 6.253906 0.5625 6.578125 0.5 C 6.910156 0.445312 7.132812 0.265625 7.25 -0.046875 C 7.300781 -0.191406 7.316406 -0.34375 7.296875 -0.5 C 7.273438 -0.65625 7.222656 -0.8125 7.140625 -0.96875 C 7.066406 -1.132812 6.957031 -1.304688 6.8125 -1.484375 C 6.675781 -1.671875 6.519531 -1.863281 6.34375 -2.0625 L 5.109375 -3.46875 C 4.859375 -3.75 4.617188 -4.050781 4.390625 -4.375 C 4.171875 -4.695312 3.992188 -5.023438 3.859375 -5.359375 C 3.734375 -5.703125 3.664062 -6.054688 3.65625 -6.421875 C 3.65625 -6.796875 3.726562 -7.1875 3.875 -7.59375 C 3.96875 -7.851562 4.09375 -8.101562 4.25 -8.34375 C 4.40625 -8.59375 4.585938 -8.816406 4.796875 -9.015625 C 5.015625 -9.222656 5.269531 -9.394531 5.5625 -9.53125 C 5.851562 -9.664062 6.1875 -9.75 6.5625 -9.78125 C 6.9375 -9.820312 7.359375 -9.804688 7.828125 -9.734375 C 8.296875 -9.671875 8.820312 -9.53125 9.40625 -9.3125 C 9.757812 -9.175781 10.109375 -9.03125 10.453125 -8.875 C 10.804688 -8.71875 11.140625 -8.554688 11.453125 -8.390625 C 11.765625 -8.222656 12.054688 -8.054688 12.328125 -7.890625 C 12.609375 -7.722656 12.859375 -7.566406 13.078125 -7.421875 L 11.53125 -3.96875 L 9.703125 -4.65625 L 9.75 -4.875 C 9.800781 -5.09375 9.835938 -5.320312 9.859375 -5.5625 C 9.890625 -5.8125 9.875 -6.0625 9.8125 -6.3125 C 9.757812 -6.5625 9.640625 -6.796875 9.453125 -7.015625 C 9.265625 -7.234375 8.972656 -7.414062 8.578125 -7.5625 Z M 8.578125 -7.5625 "/></g></g></g><g fill="#2d3455" fill-opacity="1"><g transform="translate(263.639599, 73.877622)"><g><path d="M 9.53125 -6.3125 C 9.164062 -6.507812 8.828125 -6.585938 8.515625 -6.546875 C 8.210938 -6.503906 7.984375 -6.34375 7.828125 -6.0625 C 7.742188 -5.90625 7.695312 -5.742188 7.6875 -5.578125 C 7.6875 -5.421875 7.71875 -5.253906 7.78125 -5.078125 C 7.84375 -4.898438 7.925781 -4.710938 8.03125 -4.515625 C 8.144531 -4.316406 8.265625 -4.113281 8.390625 -3.90625 L 9.328125 -2.53125 C 9.546875 -2.195312 9.75 -1.851562 9.9375 -1.5 C 10.132812 -1.144531 10.28125 -0.78125 10.375 -0.40625 C 10.46875 -0.03125 10.5 0.347656 10.46875 0.734375 C 10.445312 1.128906 10.328125 1.53125 10.109375 1.9375 C 9.910156 2.289062 9.640625 2.609375 9.296875 2.890625 C 8.953125 3.171875 8.53125 3.359375 8.03125 3.453125 C 7.53125 3.554688 6.960938 3.550781 6.328125 3.4375 C 5.691406 3.332031 4.976562 3.066406 4.1875 2.640625 C 3.84375 2.460938 3.503906 2.269531 3.171875 2.0625 C 2.847656 1.851562 2.539062 1.644531 2.25 1.4375 C 1.957031 1.238281 1.679688 1.035156 1.421875 0.828125 C 1.171875 0.628906 0.945312 0.4375 0.75 0.25 L 2.671875 -3 L 4.375 -2.078125 L 4.265625 -1.8125 C 4.179688 -1.613281 4.109375 -1.390625 4.046875 -1.140625 C 3.992188 -0.898438 3.992188 -0.648438 4.046875 -0.390625 C 4.109375 -0.128906 4.238281 0.125 4.4375 0.375 C 4.632812 0.632812 4.945312 0.878906 5.375 1.109375 C 5.757812 1.316406 6.117188 1.410156 6.453125 1.390625 C 6.785156 1.378906 7.023438 1.234375 7.171875 0.953125 C 7.253906 0.816406 7.296875 0.664062 7.296875 0.5 C 7.296875 0.34375 7.269531 0.175781 7.21875 0 C 7.164062 -0.164062 7.082031 -0.34375 6.96875 -0.53125 C 6.851562 -0.726562 6.71875 -0.941406 6.5625 -1.171875 L 5.53125 -2.71875 C 5.320312 -3.050781 5.128906 -3.390625 4.953125 -3.734375 C 4.785156 -4.078125 4.660156 -4.425781 4.578125 -4.78125 C 4.492188 -5.144531 4.472656 -5.507812 4.515625 -5.875 C 4.554688 -6.25 4.679688 -6.625 4.890625 -7 C 5.023438 -7.25 5.179688 -7.484375 5.359375 -7.703125 C 5.546875 -7.921875 5.757812 -8.113281 6 -8.28125 C 6.238281 -8.445312 6.507812 -8.578125 6.8125 -8.671875 C 7.113281 -8.773438 7.453125 -8.816406 7.828125 -8.796875 C 8.210938 -8.785156 8.632812 -8.710938 9.09375 -8.578125 C 9.550781 -8.441406 10.046875 -8.226562 10.578125 -7.9375 C 10.921875 -7.75 11.25 -7.550781 11.5625 -7.34375 C 11.882812 -7.144531 12.191406 -6.941406 12.484375 -6.734375 C 12.773438 -6.535156 13.046875 -6.332031 13.296875 -6.125 C 13.554688 -5.914062 13.78125 -5.726562 13.96875 -5.5625 L 11.96875 -2.359375 L 10.25 -3.28125 L 10.328125 -3.5 C 10.398438 -3.707031 10.46875 -3.925781 10.53125 -4.15625 C 10.59375 -4.394531 10.609375 -4.644531 10.578125 -4.90625 C 10.554688 -5.164062 10.46875 -5.414062 10.3125 -5.65625 C 10.164062 -5.894531 9.90625 -6.113281 9.53125 -6.3125 Z M 9.53125 -6.3125 "/></g></g></g><g fill="#2d3455" fill-opacity="1"><g transform="translate(106.413507, 310.130899)"><g><path d="M 11.109375 1.234375 C 11.078125 1.617188 11.066406 1.9375 11.078125 2.1875 C 11.097656 2.445312 11.132812 2.65625 11.1875 2.8125 C 11.238281 2.976562 11.300781 3.117188 11.375 3.234375 C 11.457031 3.347656 11.554688 3.445312 11.671875 3.53125 L 11.96875 3.828125 L 11.21875 5.28125 C 10.894531 5.101562 10.523438 4.898438 10.109375 4.671875 C 9.691406 4.441406 9.242188 4.21875 8.765625 4 C 8.253906 3.757812 7.757812 3.546875 7.28125 3.359375 C 6.8125 3.171875 6.382812 3.003906 6 2.859375 L 6.75 1.390625 C 7.019531 1.484375 7.253906 1.566406 7.453125 1.640625 C 7.660156 1.722656 7.859375 1.804688 8.046875 1.890625 L 8.3125 0.109375 C 7.84375 -0.109375 7.3125 -0.335938 6.71875 -0.578125 C 6.125 -0.828125 5.492188 -1.082031 4.828125 -1.34375 C 4.679688 -1.195312 4.554688 -1.0625 4.453125 -0.9375 C 4.359375 -0.820312 4.285156 -0.710938 4.234375 -0.609375 C 4.140625 -0.398438 4.128906 -0.222656 4.203125 -0.078125 C 4.273438 0.0664062 4.398438 0.203125 4.578125 0.328125 L 4.859375 0.515625 L 4.125 1.96875 C 3.96875 1.875 3.78125 1.769531 3.5625 1.65625 C 3.382812 1.539062 3.164062 1.414062 2.90625 1.28125 C 2.644531 1.144531 2.328125 0.992188 1.953125 0.828125 C 1.785156 0.742188 1.628906 0.664062 1.484375 0.59375 C 1.335938 0.53125 1.179688 0.46875 1.015625 0.40625 C 0.859375 0.34375 0.675781 0.269531 0.46875 0.1875 C 0.269531 0.113281 0.03125 0.03125 -0.25 -0.0625 L 0.5 -1.515625 C 0.5625 -1.492188 0.644531 -1.46875 0.75 -1.4375 C 0.820312 -1.414062 0.914062 -1.382812 1.03125 -1.34375 C 1.15625 -1.300781 1.296875 -1.25 1.453125 -1.1875 L 9.6875 -8.359375 L 11.78125 -7.765625 Z M 6.359375 -2.90625 L 8.5625 -1.875 L 9.046875 -5.234375 L 8.734375 -5.375 Z M 6.359375 -2.90625 "/></g></g></g><g fill="#2d3455" fill-opacity="1"><g transform="translate(130.728501, 320.360937)"><g><path d="M 11.890625 -5.15625 C 11.972656 -5.488281 12.015625 -5.769531 12.015625 -6 C 12.023438 -6.226562 11.992188 -6.414062 11.921875 -6.5625 C 11.859375 -6.707031 11.765625 -6.828125 11.640625 -6.921875 C 11.515625 -7.015625 11.367188 -7.097656 11.203125 -7.171875 L 10.828125 -7.359375 L 11.34375 -8.890625 C 11.59375 -8.796875 11.84375 -8.703125 12.09375 -8.609375 C 12.3125 -8.523438 12.550781 -8.4375 12.8125 -8.34375 C 13.082031 -8.25 13.347656 -8.160156 13.609375 -8.078125 C 13.796875 -8.023438 13.976562 -7.972656 14.15625 -7.921875 C 14.332031 -7.878906 14.519531 -7.832031 14.71875 -7.78125 C 14.925781 -7.738281 15.144531 -7.691406 15.375 -7.640625 C 15.613281 -7.585938 15.878906 -7.535156 16.171875 -7.484375 L 15.671875 -5.953125 C 15.554688 -5.960938 15.4375 -5.972656 15.3125 -5.984375 C 15.195312 -6.015625 15.066406 -6.039062 14.921875 -6.0625 C 14.773438 -6.09375 14.628906 -6.132812 14.484375 -6.1875 L 12.78125 -1.125 C 12.625 -0.632812 12.476562 -0.1875 12.34375 0.21875 C 12.21875 0.625 12.097656 1 11.984375 1.34375 C 11.878906 1.6875 11.78125 2.015625 11.6875 2.328125 C 11.601562 2.648438 11.507812 2.976562 11.40625 3.3125 L 9.640625 3.171875 L 5.90625 -5.6875 L 5.59375 -5.71875 L 4.71875 -2.171875 C 4.632812 -1.828125 4.585938 -1.539062 4.578125 -1.3125 C 4.566406 -1.082031 4.597656 -0.890625 4.671875 -0.734375 C 4.742188 -0.585938 4.835938 -0.46875 4.953125 -0.375 C 5.078125 -0.289062 5.226562 -0.207031 5.40625 -0.125 L 5.78125 0.046875 L 5.25 1.578125 C 5.007812 1.484375 4.757812 1.390625 4.5 1.296875 C 4.289062 1.210938 4.050781 1.125 3.78125 1.03125 C 3.507812 0.945312 3.242188 0.867188 2.984375 0.796875 C 2.796875 0.734375 2.609375 0.675781 2.421875 0.625 C 2.242188 0.570312 2.054688 0.519531 1.859375 0.46875 C 1.671875 0.425781 1.457031 0.378906 1.21875 0.328125 C 0.976562 0.285156 0.707031 0.234375 0.40625 0.171875 L 0.9375 -1.375 C 1.050781 -1.363281 1.175781 -1.34375 1.3125 -1.3125 C 1.414062 -1.289062 1.539062 -1.265625 1.6875 -1.234375 C 1.84375 -1.210938 2 -1.179688 2.15625 -1.140625 L 3.84375 -6.25 C 4.132812 -7.070312 4.378906 -7.789062 4.578125 -8.40625 C 4.773438 -9.03125 4.941406 -9.585938 5.078125 -10.078125 L 5.234375 -10.625 L 6.921875 -10.5 L 10.6875 -1.625 L 11 -1.59375 Z M 11.890625 -5.15625 "/></g></g></g><g fill="#2d3455" fill-opacity="1"><g transform="translate(157.721904, 327.079102)"><g><path d="M 10.96875 -2.15625 C 11.050781 -1.769531 11.140625 -1.457031 11.234375 -1.21875 C 11.328125 -0.988281 11.421875 -0.800781 11.515625 -0.65625 C 11.617188 -0.519531 11.722656 -0.410156 11.828125 -0.328125 C 11.929688 -0.242188 12.046875 -0.175781 12.171875 -0.125 L 12.5625 0.078125 L 12.28125 1.671875 C 11.914062 1.597656 11.503906 1.515625 11.046875 1.421875 C 10.585938 1.335938 10.097656 1.257812 9.578125 1.1875 C 9.015625 1.113281 8.476562 1.054688 7.96875 1.015625 C 7.457031 0.972656 6.992188 0.941406 6.578125 0.921875 L 6.84375 -0.6875 C 7.144531 -0.6875 7.398438 -0.679688 7.609375 -0.671875 C 7.828125 -0.660156 8.039062 -0.640625 8.25 -0.609375 L 7.953125 -2.390625 C 7.453125 -2.453125 6.878906 -2.507812 6.234375 -2.5625 C 5.585938 -2.625 4.910156 -2.679688 4.203125 -2.734375 C 4.109375 -2.546875 4.03125 -2.378906 3.96875 -2.234375 C 3.914062 -2.097656 3.882812 -1.972656 3.875 -1.859375 C 3.84375 -1.628906 3.878906 -1.453125 3.984375 -1.328125 C 4.097656 -1.210938 4.265625 -1.125 4.484375 -1.0625 L 4.78125 -0.953125 L 4.515625 0.640625 C 4.347656 0.597656 4.144531 0.550781 3.90625 0.5 C 3.695312 0.445312 3.445312 0.394531 3.15625 0.34375 C 2.863281 0.300781 2.519531 0.253906 2.125 0.203125 C 1.9375 0.179688 1.757812 0.15625 1.59375 0.125 C 1.4375 0.101562 1.269531 0.0859375 1.09375 0.078125 C 0.925781 0.0664062 0.734375 0.0546875 0.515625 0.046875 C 0.296875 0.0351562 0.0351562 0.0234375 -0.265625 0.015625 L 0.015625 -1.59375 C 0.078125 -1.59375 0.164062 -1.59375 0.28125 -1.59375 C 0.363281 -1.59375 0.46875 -1.585938 0.59375 -1.578125 C 0.71875 -1.578125 0.863281 -1.570312 1.03125 -1.5625 L 6.734375 -10.890625 L 8.90625 -10.9375 Z M 5.1875 -4.6875 L 7.609375 -4.359375 L 7.0625 -7.703125 L 6.71875 -7.75 Z M 5.1875 -4.6875 "/></g></g></g><g fill="#2d3455" fill-opacity="1"><g transform="translate(183.948483, 329.492509)"><g><path d="M 0.640625 -1.59375 C 0.785156 -1.613281 0.9375 -1.628906 1.09375 -1.640625 C 1.226562 -1.648438 1.375 -1.660156 1.53125 -1.671875 C 1.695312 -1.691406 1.863281 -1.707031 2.03125 -1.71875 C 2.039062 -2.039062 2.050781 -2.398438 2.0625 -2.796875 C 2.070312 -3.191406 2.082031 -3.597656 2.09375 -4.015625 C 2.113281 -4.441406 2.128906 -4.867188 2.140625 -5.296875 C 2.148438 -5.734375 2.15625 -6.144531 2.15625 -6.53125 C 2.164062 -6.925781 2.171875 -7.296875 2.171875 -7.640625 C 2.171875 -7.984375 2.171875 -8.28125 2.171875 -8.53125 C 2.171875 -8.832031 2.140625 -9.078125 2.078125 -9.265625 C 2.023438 -9.460938 1.953125 -9.613281 1.859375 -9.71875 C 1.773438 -9.832031 1.664062 -9.910156 1.53125 -9.953125 C 1.394531 -9.992188 1.242188 -10.023438 1.078125 -10.046875 L 0.75 -10.109375 L 0.8125 -11.734375 C 1.050781 -11.710938 1.320312 -11.691406 1.625 -11.671875 C 1.875 -11.660156 2.164062 -11.648438 2.5 -11.640625 C 2.84375 -11.628906 3.21875 -11.625 3.625 -11.625 C 4.007812 -11.632812 4.4375 -11.644531 4.90625 -11.65625 C 5.382812 -11.675781 5.925781 -11.722656 6.53125 -11.796875 L 6.46875 -10.171875 C 6.320312 -10.148438 6.171875 -10.128906 6.015625 -10.109375 C 5.878906 -10.097656 5.726562 -10.082031 5.5625 -10.0625 C 5.40625 -10.050781 5.25 -10.046875 5.09375 -10.046875 C 5.039062 -9.628906 5.003906 -8.738281 4.984375 -7.375 C 4.960938 -6.007812 4.9375 -4.195312 4.90625 -1.9375 L 6.71875 -2.09375 C 7.039062 -2.125 7.304688 -2.179688 7.515625 -2.265625 C 7.734375 -2.359375 7.914062 -2.488281 8.0625 -2.65625 C 8.207031 -2.820312 8.320312 -3.023438 8.40625 -3.265625 C 8.488281 -3.515625 8.566406 -3.800781 8.640625 -4.125 L 10.828125 -4.15625 L 10.375 0.046875 C 9.507812 -0.0234375 8.609375 -0.0703125 7.671875 -0.09375 C 6.742188 -0.125 5.738281 -0.132812 4.65625 -0.125 C 3.976562 -0.113281 3.296875 -0.09375 2.609375 -0.0625 C 1.929688 -0.0390625 1.257812 -0.00390625 0.59375 0.046875 Z M 0.640625 -1.59375 "/></g></g></g><g fill="#2d3455" fill-opacity="1"><g transform="translate(208.944698, 328.211614)"><g><path d="M 6.515625 -9.453125 C 6.640625 -9.734375 6.71875 -9.96875 6.75 -10.15625 C 6.789062 -10.351562 6.800781 -10.519531 6.78125 -10.65625 C 6.75 -10.820312 6.675781 -10.9375 6.5625 -11 C 6.457031 -11.0625 6.300781 -11.09375 6.09375 -11.09375 L 5.6875 -11.109375 L 5.5 -12.734375 C 5.882812 -12.753906 6.269531 -12.78125 6.65625 -12.8125 C 7.050781 -12.84375 7.484375 -12.894531 7.953125 -12.96875 C 8.410156 -13.039062 8.859375 -13.125 9.296875 -13.21875 C 9.734375 -13.320312 10.125 -13.421875 10.46875 -13.515625 L 10.640625 -11.90625 C 10.566406 -11.875 10.492188 -11.847656 10.421875 -11.828125 C 10.359375 -11.804688 10.289062 -11.785156 10.21875 -11.765625 C 10.15625 -11.742188 10.085938 -11.726562 10.015625 -11.71875 C 9.953125 -11.707031 9.875 -11.6875 9.78125 -11.65625 L 6.734375 -5.40625 C 6.753906 -5.238281 6.769531 -5.101562 6.78125 -5 C 6.800781 -4.894531 6.816406 -4.804688 6.828125 -4.734375 C 6.835938 -4.671875 6.847656 -4.601562 6.859375 -4.53125 C 6.867188 -4.46875 6.878906 -4.398438 6.890625 -4.328125 C 6.941406 -4.003906 7.003906 -3.75 7.078125 -3.5625 C 7.160156 -3.382812 7.253906 -3.25 7.359375 -3.15625 C 7.472656 -3.070312 7.597656 -3.015625 7.734375 -2.984375 C 7.878906 -2.960938 8.035156 -2.953125 8.203125 -2.953125 L 8.53125 -2.953125 L 8.71875 -1.328125 C 8.46875 -1.304688 8.195312 -1.285156 7.90625 -1.265625 C 7.65625 -1.242188 7.359375 -1.210938 7.015625 -1.171875 C 6.679688 -1.128906 6.316406 -1.078125 5.921875 -1.015625 C 5.546875 -0.953125 5.125 -0.878906 4.65625 -0.796875 C 4.1875 -0.710938 3.65625 -0.59375 3.0625 -0.4375 L 2.875 -2.046875 C 3.007812 -2.097656 3.15625 -2.140625 3.3125 -2.171875 C 3.445312 -2.203125 3.59375 -2.238281 3.75 -2.28125 C 3.914062 -2.320312 4.078125 -2.351562 4.234375 -2.375 C 4.210938 -2.488281 4.191406 -2.632812 4.171875 -2.8125 C 4.160156 -2.988281 4.144531 -3.175781 4.125 -3.375 C 4.101562 -3.582031 4.082031 -3.789062 4.0625 -4 C 4.039062 -4.21875 4.015625 -4.4375 3.984375 -4.65625 L 0.171875 -9.15625 C 0.0234375 -9.332031 -0.109375 -9.472656 -0.234375 -9.578125 C -0.367188 -9.679688 -0.488281 -9.765625 -0.59375 -9.828125 C -0.707031 -9.890625 -0.8125 -9.929688 -0.90625 -9.953125 C -1 -9.972656 -1.097656 -9.984375 -1.203125 -9.984375 L -1.453125 -9.984375 L -1.640625 -11.609375 C -1.265625 -11.628906 -0.828125 -11.660156 -0.328125 -11.703125 C 0.160156 -11.753906 0.664062 -11.820312 1.1875 -11.90625 C 1.75 -12 2.257812 -12.097656 2.71875 -12.203125 C 3.1875 -12.304688 3.625 -12.40625 4.03125 -12.5 L 4.1875 -10.875 C 3.914062 -10.789062 3.671875 -10.722656 3.453125 -10.671875 C 3.242188 -10.628906 3.046875 -10.585938 2.859375 -10.546875 L 5.40625 -7.359375 L 5.734375 -7.40625 Z M 6.515625 -9.453125 "/></g></g></g><g fill="#2d3455" fill-opacity="1"><g transform="translate(234.492481, 323.12763)"><g><path d="M 2.1875 -11.21875 C 1.789062 -11.101562 1.492188 -10.921875 1.296875 -10.671875 C 1.109375 -10.421875 1.066406 -10.140625 1.171875 -9.828125 C 1.222656 -9.660156 1.304688 -9.519531 1.421875 -9.40625 C 1.535156 -9.289062 1.675781 -9.1875 1.84375 -9.09375 C 2.007812 -9.007812 2.195312 -8.9375 2.40625 -8.875 C 2.625 -8.820312 2.851562 -8.769531 3.09375 -8.71875 L 4.734375 -8.421875 C 5.128906 -8.347656 5.519531 -8.253906 5.90625 -8.140625 C 6.289062 -8.035156 6.648438 -7.882812 6.984375 -7.6875 C 7.316406 -7.488281 7.613281 -7.242188 7.875 -6.953125 C 8.132812 -6.660156 8.332031 -6.296875 8.46875 -5.859375 C 8.582031 -5.472656 8.617188 -5.054688 8.578125 -4.609375 C 8.535156 -4.160156 8.375 -3.722656 8.09375 -3.296875 C 7.820312 -2.867188 7.421875 -2.460938 6.890625 -2.078125 C 6.359375 -1.703125 5.664062 -1.382812 4.8125 -1.125 C 4.445312 -1.007812 4.078125 -0.90625 3.703125 -0.8125 C 3.328125 -0.726562 2.960938 -0.648438 2.609375 -0.578125 C 2.253906 -0.515625 1.914062 -0.460938 1.59375 -0.421875 C 1.269531 -0.390625 0.972656 -0.375 0.703125 -0.375 L -0.265625 -4 L 1.59375 -4.578125 L 1.703125 -4.3125 C 1.785156 -4.113281 1.894531 -3.910156 2.03125 -3.703125 C 2.164062 -3.492188 2.34375 -3.3125 2.5625 -3.15625 C 2.789062 -3.007812 3.0625 -2.921875 3.375 -2.890625 C 3.695312 -2.859375 4.085938 -2.914062 4.546875 -3.0625 C 4.972656 -3.1875 5.296875 -3.367188 5.515625 -3.609375 C 5.742188 -3.859375 5.8125 -4.140625 5.71875 -4.453125 C 5.664062 -4.597656 5.582031 -4.726562 5.46875 -4.84375 C 5.351562 -4.957031 5.21875 -5.054688 5.0625 -5.140625 C 4.90625 -5.222656 4.710938 -5.289062 4.484375 -5.34375 C 4.265625 -5.40625 4.023438 -5.457031 3.765625 -5.5 L 1.9375 -5.859375 C 1.550781 -5.941406 1.175781 -6.039062 0.8125 -6.15625 C 0.445312 -6.269531 0.109375 -6.421875 -0.203125 -6.609375 C -0.515625 -6.804688 -0.785156 -7.046875 -1.015625 -7.328125 C -1.253906 -7.617188 -1.4375 -7.96875 -1.5625 -8.375 C -1.644531 -8.644531 -1.695312 -8.921875 -1.71875 -9.203125 C -1.75 -9.492188 -1.738281 -9.785156 -1.6875 -10.078125 C -1.644531 -10.367188 -1.550781 -10.65625 -1.40625 -10.9375 C -1.257812 -11.21875 -1.046875 -11.488281 -0.765625 -11.75 C -0.492188 -12.019531 -0.15625 -12.269531 0.25 -12.5 C 0.664062 -12.726562 1.164062 -12.929688 1.75 -13.109375 C 2.125 -13.222656 2.492188 -13.320312 2.859375 -13.40625 C 3.234375 -13.488281 3.59375 -13.5625 3.9375 -13.625 C 4.289062 -13.695312 4.628906 -13.75 4.953125 -13.78125 C 5.273438 -13.8125 5.566406 -13.832031 5.828125 -13.84375 L 6.703125 -10.1875 L 4.84375 -9.609375 L 4.75 -9.8125 C 4.65625 -10.007812 4.539062 -10.210938 4.40625 -10.421875 C 4.28125 -10.628906 4.117188 -10.816406 3.921875 -10.984375 C 3.722656 -11.148438 3.484375 -11.257812 3.203125 -11.3125 C 2.921875 -11.375 2.582031 -11.34375 2.1875 -11.21875 Z M 2.1875 -11.21875 "/></g></g></g><g fill="#2d3455" fill-opacity="1"><g transform="translate(257.563939, 315.051646)"><g><path d="M 5.46875 -11.140625 L 5.21875 -11.546875 C 5.101562 -11.710938 4.988281 -11.847656 4.875 -11.953125 C 4.757812 -12.066406 4.632812 -12.132812 4.5 -12.15625 C 4.375 -12.175781 4.222656 -12.164062 4.046875 -12.125 C 3.867188 -12.09375 3.664062 -12.035156 3.4375 -11.953125 L 2.671875 -11.703125 C 2.847656 -11.242188 3.03125 -10.785156 3.21875 -10.328125 C 3.414062 -9.878906 3.601562 -9.4375 3.78125 -9 C 3.957031 -8.570312 4.125 -8.175781 4.28125 -7.8125 C 4.4375 -7.445312 4.578125 -7.117188 4.703125 -6.828125 C 4.835938 -6.546875 4.945312 -6.316406 5.03125 -6.140625 C 5.113281 -5.960938 5.171875 -5.847656 5.203125 -5.796875 C 5.316406 -5.546875 5.429688 -5.351562 5.546875 -5.21875 C 5.671875 -5.082031 5.796875 -4.984375 5.921875 -4.921875 C 6.046875 -4.867188 6.175781 -4.851562 6.3125 -4.875 C 6.457031 -4.894531 6.601562 -4.929688 6.75 -4.984375 L 7.109375 -5.078125 L 7.75 -3.578125 C 7.507812 -3.492188 7.253906 -3.398438 6.984375 -3.296875 C 6.742188 -3.203125 6.46875 -3.085938 6.15625 -2.953125 C 5.84375 -2.828125 5.503906 -2.679688 5.140625 -2.515625 C 4.796875 -2.347656 4.410156 -2.15625 3.984375 -1.9375 C 3.554688 -1.726562 3.082031 -1.460938 2.5625 -1.140625 L 1.9375 -2.640625 C 2.050781 -2.722656 2.179688 -2.804688 2.328125 -2.890625 C 2.441406 -2.953125 2.570312 -3.023438 2.71875 -3.109375 C 2.863281 -3.203125 3.007812 -3.28125 3.15625 -3.34375 C 3.039062 -3.644531 2.90625 -3.972656 2.75 -4.328125 C 2.601562 -4.691406 2.453125 -5.0625 2.296875 -5.4375 C 2.140625 -5.8125 1.976562 -6.191406 1.8125 -6.578125 C 1.65625 -6.972656 1.5 -7.34375 1.34375 -7.6875 C 1.1875 -8.039062 1.039062 -8.367188 0.90625 -8.671875 C 0.78125 -8.984375 0.671875 -9.242188 0.578125 -9.453125 L -0.03125 -10.75 C -0.269531 -10.664062 -0.453125 -10.597656 -0.578125 -10.546875 C -0.710938 -10.492188 -0.8125 -10.453125 -0.875 -10.421875 C -0.9375 -10.398438 -0.976562 -10.382812 -1 -10.375 C -1.03125 -10.363281 -1.050781 -10.351562 -1.0625 -10.34375 C -1.195312 -10.28125 -1.320312 -10.191406 -1.4375 -10.078125 C -1.550781 -9.972656 -1.628906 -9.84375 -1.671875 -9.6875 C -1.722656 -9.53125 -1.734375 -9.335938 -1.703125 -9.109375 C -1.679688 -8.878906 -1.625 -8.617188 -1.53125 -8.328125 L -1.40625 -7.921875 L -2.875 -7.234375 L -4.453125 -10.859375 C -3.960938 -11.054688 -3.460938 -11.265625 -2.953125 -11.484375 C -2.734375 -11.566406 -2.5 -11.660156 -2.25 -11.765625 C -2.007812 -11.878906 -1.757812 -11.992188 -1.5 -12.109375 C -1.25 -12.222656 -0.992188 -12.335938 -0.734375 -12.453125 C -0.484375 -12.566406 -0.234375 -12.679688 0.015625 -12.796875 C 0.609375 -13.078125 1.144531 -13.332031 1.625 -13.5625 C 2.101562 -13.789062 2.554688 -14.007812 2.984375 -14.21875 C 3.410156 -14.425781 3.820312 -14.640625 4.21875 -14.859375 C 4.625 -15.078125 5.046875 -15.320312 5.484375 -15.59375 L 6.953125 -11.84375 Z M 5.46875 -11.140625 "/></g></g></g><g fill="#180d1e" fill-opacity="1"><g transform="translate(134.995489, 230.491027)"><g><path d="M 61.46875 7.84375 C 60.101562 7.84375 59.1875 7.1875 58.71875 5.875 C 58.257812 4.570312 58.03125 3.265625 58.03125 1.953125 C 58.03125 -2.722656 60.535156 -9.441406 65.546875 -18.203125 C 68.753906 -23.703125 73.707031 -31.101562 80.40625 -40.40625 C 73.164062 -39.75 63.804688 -34.035156 52.328125 -23.265625 C 43.179688 -14.609375 36.675781 -7.179688 32.8125 -0.984375 C 31.507812 1.035156 30.859375 2.476562 30.859375 3.34375 C 30.859375 3.726562 30.976562 3.972656 31.21875 4.078125 C 31.46875 4.191406 31.59375 4.25 31.59375 4.25 C 31.59375 4.351562 31.070312 4.757812 30.03125 5.46875 C 29.269531 5.90625 28.320312 6.125 27.1875 6.125 C 24.894531 6.125 23.914062 5.609375 24.25 4.578125 C 25.007812 2.179688 27.535156 -2.226562 31.828125 -8.65625 C 37.429688 -16.976562 41.078125 -22.664062 42.765625 -25.71875 C 46.472656 -32.351562 48.328125 -37.601562 48.328125 -41.46875 C 48.328125 -44.1875 47.660156 -46.0625 46.328125 -47.09375 C 44.992188 -48.132812 43.128906 -48.65625 40.734375 -48.65625 C 34.253906 -48.65625 27.367188 -45.6875 20.078125 -39.75 C 17.085938 -37.300781 14.3125 -34.59375 11.75 -31.625 C 9.195312 -28.664062 7.128906 -25.609375 5.546875 -22.453125 C 3.972656 -19.296875 3.1875 -16.191406 3.1875 -13.140625 C 3.1875 -7.921875 5.609375 -5.253906 10.453125 -5.140625 C 17.191406 -4.972656 22.28125 -7.234375 25.71875 -11.921875 C 27.019531 -13.710938 27.671875 -15.398438 27.671875 -16.984375 C 27.671875 -17.898438 27.367188 -18.523438 26.765625 -18.859375 C 26.710938 -18.910156 26.6875 -18.988281 26.6875 -19.09375 C 26.6875 -19.3125 26.851562 -19.421875 27.1875 -19.421875 C 28.59375 -19.421875 29.296875 -18.5 29.296875 -16.65625 C 29.296875 -15.507812 28.835938 -14.066406 27.921875 -12.328125 C 26.390625 -9.710938 24.128906 -7.644531 21.140625 -6.125 C 18.148438 -4.601562 15.046875 -3.84375 11.828125 -3.84375 C 8.296875 -3.84375 5.46875 -4.898438 3.34375 -7.015625 C 1.21875 -9.140625 0.15625 -12 0.15625 -15.59375 C 0.15625 -24.082031 5.976562 -33.003906 17.625 -42.359375 C 19.582031 -43.941406 21.976562 -45.359375 24.8125 -46.609375 C 27.644531 -47.859375 30.570312 -48.835938 33.59375 -49.546875 C 36.613281 -50.253906 39.398438 -50.609375 41.953125 -50.609375 C 45.160156 -50.609375 47.703125 -49.992188 49.578125 -48.765625 C 51.460938 -47.546875 52.40625 -45.4375 52.40625 -42.4375 C 52.40625 -38.582031 50.828125 -33.46875 47.671875 -27.09375 C 46.960938 -25.6875 46.0625 -24.054688 44.96875 -22.203125 C 43.882812 -20.347656 42.609375 -18.304688 41.140625 -16.078125 C 42.828125 -18.203125 45.578125 -20.894531 49.390625 -24.15625 C 56.242188 -29.925781 62.582031 -34.675781 68.40625 -38.40625 C 74.226562 -42.132812 79.53125 -44.867188 84.3125 -46.609375 C 84.800781 -46.828125 85.347656 -46.9375 85.953125 -46.9375 C 88.015625 -46.9375 89.320312 -45.765625 89.875 -43.421875 C 90.144531 -42.492188 88.835938 -40.5625 85.953125 -37.625 C 79.148438 -30.664062 73.269531 -22.882812 68.3125 -14.28125 C 63.800781 -6.332031 61.546875 -0.566406 61.546875 3.015625 C 61.546875 4.546875 62.0625 5.3125 63.09375 5.3125 C 63.75 5.3125 65.382812 4.738281 68 3.59375 C 70.28125 2.5625 71.773438 1.960938 72.484375 1.796875 C 72.753906 1.898438 72.890625 2.035156 72.890625 2.203125 C 72.890625 3.015625 71.445312 4.15625 68.5625 5.625 C 65.738281 7.101562 63.375 7.84375 61.46875 7.84375 Z M 61.46875 7.84375 "/></g></g></g><g fill="#180d1e" fill-opacity="1"><g transform="translate(215.722871, 230.491027)"><g><path d="M 3.515625 0.15625 C 2.148438 0.15625 1.085938 -0.476562 0.328125 -1.75 C -0.429688 -3.03125 -0.8125 -4.269531 -0.8125 -5.46875 C -0.8125 -8.726562 1.550781 -13.300781 6.28125 -19.1875 C 11.070312 -25.113281 14.9375 -28.078125 17.875 -28.078125 C 20.644531 -28.078125 22.03125 -26.609375 22.03125 -23.671875 C 22.03125 -23.234375 21.988281 -22.769531 21.90625 -22.28125 C 21.832031 -21.789062 21.738281 -21.273438 21.625 -20.734375 C 21.738281 -20.566406 22.015625 -20.484375 22.453125 -20.484375 C 23.921875 -20.484375 25.660156 -21 27.671875 -22.03125 C 27.617188 -21.113281 25.46875 -19.785156 21.21875 -18.046875 C 21.820312 -16.242188 20.023438 -12.8125 15.828125 -7.75 C 11.535156 -2.476562 7.863281 0.15625 4.8125 0.15625 Z M 4.984375 -2.28125 C 7.316406 -2.28125 10.304688 -4.429688 13.953125 -8.734375 C 17.492188 -12.921875 19.265625 -15.941406 19.265625 -17.796875 C 18.390625 -18.285156 17.300781 -19.535156 16 -21.546875 C 14.144531 -21.546875 11.476562 -19.316406 8 -14.859375 C 4.570312 -10.503906 2.910156 -7.15625 3.015625 -4.8125 C 3.078125 -3.125 3.734375 -2.28125 4.984375 -2.28125 Z M 4.984375 -2.28125 "/></g></g></g><g fill="#180d1e" fill-opacity="1"><g transform="translate(243.883588, 230.491027)"><g><path d="M 2.6875 0.25 C 2.363281 0.25 1.898438 0.0976562 1.296875 -0.203125 C 0.703125 -0.503906 0.160156 -0.859375 -0.328125 -1.265625 C -0.816406 -1.671875 -1.085938 -2.035156 -1.140625 -2.359375 C -1.191406 -2.796875 -0.90625 -4.035156 -0.28125 -6.078125 C 0.34375 -8.117188 1.332031 -10.910156 2.6875 -14.453125 C 4.050781 -18.035156 5.195312 -20.804688 6.125 -22.765625 C 7.050781 -24.734375 7.726562 -25.90625 8.15625 -26.28125 C 8.375 -26.5 8.675781 -26.609375 9.0625 -26.609375 C 9.65625 -26.609375 10.222656 -26.347656 10.765625 -25.828125 C 11.316406 -25.316406 11.617188 -24.707031 11.671875 -24 C 11.671875 -23.945312 10.3125 -20.734375 7.59375 -14.359375 C 4.925781 -8.210938 3.675781 -4.539062 3.84375 -3.34375 C 6.226562 -4.101562 10.222656 -6.796875 15.828125 -11.421875 C 19.203125 -14.253906 21.640625 -16.828125 23.140625 -19.140625 C 24.640625 -21.453125 25.390625 -23.535156 25.390625 -25.390625 C 25.390625 -26.472656 25.128906 -27.460938 24.609375 -28.359375 C 24.085938 -29.265625 23.148438 -30.015625 21.796875 -30.609375 C 21.410156 -30.773438 21.21875 -31.019531 21.21875 -31.34375 C 21.21875 -31.832031 21.519531 -32.078125 22.125 -32.078125 C 23.695312 -32.078125 25.066406 -31.5625 26.234375 -30.53125 C 27.410156 -29.5 28 -27.945312 28 -25.875 C 28 -23.695312 27.070312 -21.234375 25.21875 -18.484375 C 23.375 -15.734375 20.734375 -12.8125 17.296875 -9.71875 C 14.304688 -7.050781 11.597656 -4.875 9.171875 -3.1875 C 6.753906 -1.5 4.59375 -0.351562 2.6875 0.25 Z M 2.6875 0.25 "/></g></g></g><g fill="#180d1e" fill-opacity="1"><g transform="translate(273.676812, 230.491027)"><g><path d="M 5.46875 0.40625 C 4.164062 0.40625 2.859375 -0.0507812 1.546875 -0.96875 C 0.242188 -1.894531 -0.488281 -2.988281 -0.65625 -4.25 C -1.195312 -8.4375 1.441406 -13.414062 7.265625 -19.1875 C 13.035156 -24.945312 18.234375 -27.828125 22.859375 -27.828125 C 24.109375 -27.828125 25.085938 -27.53125 25.796875 -26.9375 C 26.171875 -26.550781 26.453125 -26.03125 26.640625 -25.375 C 26.835938 -24.726562 26.988281 -24.40625 27.09375 -24.40625 C 27.3125 -24.40625 27.503906 -24.445312 27.671875 -24.53125 C 27.835938 -24.613281 28.03125 -24.65625 28.25 -24.65625 C 28.894531 -24.65625 29.460938 -24.410156 29.953125 -23.921875 C 30.441406 -23.429688 30.710938 -22.992188 30.765625 -22.609375 C 30.828125 -22.503906 29.085938 -19.8125 25.546875 -14.53125 C 22.015625 -9.363281 20.410156 -5.851562 20.734375 -4 C 21.003906 -2.75 21.601562 -2.125 22.53125 -2.125 C 25.351562 -2.125 30.519531 -6.800781 38.03125 -16.15625 C 38.195312 -16.375 38.363281 -16.484375 38.53125 -16.484375 C 38.800781 -16.484375 38.9375 -16.296875 38.9375 -15.921875 C 38.9375 -15.484375 38.691406 -14.9375 38.203125 -14.28125 C 31.285156 -4.976562 25.976562 -0.328125 22.28125 -0.328125 C 21.789062 -0.328125 21.328125 -0.410156 20.890625 -0.578125 C 18.492188 -1.492188 17.296875 -3.285156 17.296875 -5.953125 C 17.296875 -6.878906 17.40625 -7.804688 17.625 -8.734375 L 12.5625 -3.84375 C 11.039062 -2.3125 9.664062 -1.21875 8.4375 -0.5625 C 7.21875 0.0820312 6.226562 0.40625 5.46875 0.40625 Z M 4.734375 -1.390625 C 7.890625 -1.390625 12.1875 -4.84375 17.625 -11.75 L 26.28125 -23.671875 C 25.84375 -24.429688 25.132812 -24.8125 24.15625 -24.8125 C 20.84375 -24.8125 16.351562 -22.144531 10.6875 -16.8125 C 4.8125 -11.375 2.175781 -6.882812 2.78125 -3.34375 C 3.050781 -2.039062 3.703125 -1.390625 4.734375 -1.390625 Z M 4.734375 -1.390625 "/></g></g></g></svg>