<svg xmlns="http://www.w3.org/2000/svg" xmlns:xlink="http://www.w3.org/1999/xlink" width="500" zoomAndPan="magnify" viewBox="0 0 375 374.999991" height="500" preserveAspectRatio="xMidYMid meet" version="1.0"><defs><g/><clipPath id="7f6b6a65b9"><path d="M 10.035156 16.054688 L 356.9375 16.054688 L 356.9375 362.957031 L 10.035156 362.957031 Z M 10.035156 16.054688 " clip-rule="nonzero"/></clipPath><clipPath id="1ec7c1a3f4"><path d="M 183.488281 16.054688 C 87.691406 16.054688 10.035156 93.710938 10.035156 189.507812 C 10.035156 285.300781 87.691406 362.957031 183.488281 362.957031 C 279.28125 362.957031 356.9375 285.300781 356.9375 189.507812 C 356.9375 93.710938 279.28125 16.054688 183.488281 16.054688 Z M 183.488281 16.054688 " clip-rule="nonzero"/></clipPath><clipPath id="9b97ee0170"><path d="M 10.035156 12.042969 L 360.953125 12.042969 L 360.953125 362.957031 L 10.035156 362.957031 Z M 10.035156 12.042969 " clip-rule="nonzero"/></clipPath><clipPath id="c5169b070c"><path d="M 185.492188 362.957031 C 138.648438 362.957031 94.539062 344.726562 61.4375 311.554688 C 28.269531 278.457031 10.035156 234.34375 10.035156 187.5 C 10.035156 140.65625 28.269531 96.542969 61.4375 63.445312 C 94.539062 30.273438 138.648438 12.042969 185.492188 12.042969 C 232.339844 12.042969 276.449219 30.273438 309.546875 63.445312 C 342.71875 96.613281 360.953125 140.65625 360.953125 187.5 C 360.953125 234.34375 342.71875 278.457031 309.546875 311.554688 C 276.449219 344.726562 232.339844 362.957031 185.492188 362.957031 Z M 185.492188 22.558594 C 141.453125 22.558594 100.007812 39.742188 68.871094 70.878906 C 37.734375 102.015625 20.554688 143.460938 20.554688 187.5 C 20.554688 231.539062 37.734375 272.984375 68.871094 304.121094 C 100.007812 335.257812 141.453125 352.441406 185.492188 352.441406 C 229.535156 352.441406 270.980469 335.257812 302.113281 304.121094 C 333.25 272.984375 350.433594 231.539062 350.433594 187.5 C 350.433594 143.460938 333.25 102.015625 302.113281 70.878906 C 270.980469 39.742188 229.535156 22.558594 185.492188 22.558594 Z M 185.492188 22.558594 " clip-rule="nonzero"/></clipPath></defs><g clip-path="url(#7f6b6a65b9)"><g clip-path="url(#1ec7c1a3f4)"><path fill="#ffffff" d="M 10.035156 16.054688 L 356.9375 16.054688 L 356.9375 362.957031 L 10.035156 362.957031 Z M 10.035156 16.054688 " fill-opacity="1" fill-rule="nonzero"/></g></g><g clip-path="url(#9b97ee0170)"><g clip-path="url(#c5169b070c)"><path fill="#d6d0f6" d="M 10.035156 12.042969 L 360.953125 12.042969 L 360.953125 362.957031 L 10.035156 362.957031 Z M 10.035156 12.042969 " fill-opacity="1" fill-rule="nonzero"/></g></g><g fill="#180d1e" fill-opacity="1"><g transform="translate(47.115385, 186.392534)"><g><path d="M 18.3125 0 L 31.078125 -12.84375 L 32.375 -13.015625 C 32.71875 -13.078125 33.46875 -13.050781 34.625 -12.9375 C 35.207031 -12.875 35.847656 -12.84375 36.546875 -12.84375 C 42.847656 -12.84375 47.601562 -14.765625 50.8125 -18.609375 C 54.03125 -22.460938 56.617188 -29.363281 58.578125 -39.3125 L 74.984375 -121.6875 C 63.066406 -121.6875 53.429688 -118.488281 46.078125 -112.09375 C 38.734375 -105.695312 35.0625 -97.347656 35.0625 -87.046875 L 35.0625 -85.140625 L 18.21875 -76.984375 C 21.226562 -111.296875 45.9375 -128.453125 92.34375 -128.453125 L 117.421875 -128.453125 C 136.753906 -128.453125 150.703125 -124.847656 159.265625 -117.640625 C 167.828125 -110.441406 172.109375 -98.679688 172.109375 -82.359375 C 172.109375 -55.921875 162.976562 -35.222656 144.71875 -20.265625 C 126.46875 -5.304688 101.257812 2.171875 69.09375 2.171875 C 67.757812 2.171875 65.066406 2.082031 61.015625 1.90625 Z M 49.640625 -10.9375 L 65.09375 -8.328125 C 73.476562 -6.878906 82.015625 -6.15625 90.703125 -6.15625 C 102.617188 -6.15625 111.898438 -7.789062 118.546875 -11.0625 C 125.203125 -14.332031 131.367188 -20.304688 137.046875 -28.984375 C 147.054688 -44.265625 152.0625 -61.25 152.0625 -79.9375 C 152.0625 -108.75 136.148438 -123.15625 104.328125 -123.15625 L 93.46875 -123.15625 L 80.203125 -56.59375 C 77.828125 -44.5 74.554688 -35.351562 70.390625 -29.15625 C 66.222656 -22.96875 59.304688 -16.894531 49.640625 -10.9375 Z M 49.640625 -10.9375 "/></g></g></g><g fill="#180d1e" fill-opacity="1"><g transform="translate(104.486321, 297.581293)"><g><path d="M 6.9375 -8.15625 L 19.359375 -20.828125 C 25.253906 -11.222656 33.351562 -6.421875 43.65625 -6.421875 C 50.539062 -6.421875 56.613281 -9.296875 61.875 -15.046875 C 67.144531 -20.804688 70.734375 -28.492188 72.640625 -38.109375 L 89.046875 -120.46875 C 86.097656 -120.925781 84.015625 -121.15625 82.796875 -121.15625 C 73.304688 -121.15625 65.378906 -117.753906 59.015625 -110.953125 C 52.648438 -104.160156 49.46875 -95.703125 49.46875 -85.578125 L 32.640625 -77.328125 C 33.796875 -92.660156 40.070312 -105.015625 51.46875 -114.390625 C 62.863281 -123.765625 77.300781 -128.453125 94.78125 -128.453125 L 103.109375 -128.453125 C 109.066406 -113.179688 116.90625 -96.894531 126.625 -79.59375 L 137.65625 -59.96875 C 145.351562 -46.488281 150.992188 -35.582031 154.578125 -27.25 L 164.5625 -77.421875 C 167.96875 -94.722656 173.921875 -108.101562 182.421875 -117.5625 C 190.929688 -127.019531 201.207031 -131.75 213.25 -131.75 C 217.53125 -131.75 221.722656 -130.9375 225.828125 -129.3125 L 219.578125 -117.609375 C 214.429688 -121.648438 209.488281 -123.671875 204.75 -123.671875 C 192.25 -123.671875 183.859375 -112.796875 179.578125 -91.046875 L 166.546875 -25.6875 L 162.46875 0 L 151.359375 3.8125 C 149.273438 -2.71875 143.203125 -14.925781 133.140625 -32.8125 L 111.875 -70.46875 C 106.207031 -80.539062 101.519531 -89.539062 97.8125 -97.46875 L 91.21875 -64.046875 C 86.988281 -42.929688 79.941406 -26.703125 70.078125 -15.359375 C 60.210938 -4.015625 48.191406 1.65625 34.015625 1.65625 C 24.066406 1.65625 15.039062 -1.613281 6.9375 -8.15625 Z M 6.9375 -8.15625 "/></g></g></g></svg>