<?xml version="1.0" encoding="UTF-8" standalone="no"?>
<!DOCTYPE svg PUBLIC "-//W3C//DTD SVG 1.1//EN" "http://www.w3.org/Graphics/SVG/1.1/DTD/svg11.dtd">
<svg width="100%" height="100%" viewBox="0 0 20 16" version="1.1" xmlns="http://www.w3.org/2000/svg" xmlns:xlink="http://www.w3.org/1999/xlink" xml:space="preserve" xmlns:serif="http://www.serif.com/" style="fill-rule:evenodd;clip-rule:evenodd;stroke-linejoin:round;stroke-miterlimit:2;">
    <g transform="matrix(1,0,0,1,-2,-4.019)">
        <path d="M19.633,7.997C19.646,8.172 19.646,8.346 19.646,8.52C19.646,13.845 15.593,19.981 8.186,19.981C5.904,19.981 3.784,19.32 2,18.172C2.324,18.209 2.636,18.222 2.973,18.222C4.786,18.226 6.548,17.62 7.974,16.501C6.255,16.47 4.736,15.344 4.207,13.708C4.456,13.745 4.706,13.77 4.968,13.77C5.329,13.77 5.692,13.72 6.029,13.633C4.155,13.255 2.796,11.592 2.799,9.68L2.799,9.63C3.336,9.929 3.959,10.116 4.619,10.141C3.497,9.395 2.822,8.134 2.823,6.787C2.823,6.039 3.022,5.353 3.371,4.755C5.417,7.272 8.438,8.805 11.677,8.97C11.615,8.67 11.577,8.359 11.577,8.047L11.577,8.045C11.577,5.836 13.394,4.019 15.603,4.019L15.605,4.019C16.765,4.019 17.812,4.505 18.548,5.291C19.45,5.117 20.315,4.787 21.104,4.318C20.803,5.249 20.174,6.038 19.333,6.538C20.133,6.447 20.914,6.236 21.652,5.914C21.101,6.717 20.419,7.421 19.633,7.997Z" style="fill:rgb(248,106,46);fill-rule:nonzero;"/>
    </g>
</svg>
